<?xml version="1.0" standalone="no"?>
<!DOCTYPE svg PUBLIC "-//W3C//DTD SVG 20010904//EN"
 "http://www.w3.org/TR/2001/REC-SVG-20010904/DTD/svg10.dtd">
<svg version="1.0" xmlns="http://www.w3.org/2000/svg"
 width="800.000000pt" height="800.000000pt" viewBox="0 0 800.000000 800.000000"
 preserveAspectRatio="xMidYMid meet">
<metadata>
Created by potrace 1.14, written by Peter Selinger 2001-2017
</metadata>
<g transform="translate(0.000000,800.000000) scale(0.100000,-0.100000)"
fill="#000000" stroke="none">
<path d="M1735 7850 c-135 -35 -273 -101 -424 -200 -306 -201 -516 -451 -669
-797 -123 -276 -168 -471 -178 -768 -9 -266 17 -435 98 -644 53 -135 135 -258
242 -358 106 -100 216 -175 216 -147 0 3 -15 33 -34 67 -19 34 -47 96 -62 137
-26 69 -28 87 -28 220 -1 159 10 225 52 303 50 93 124 118 216 73 121 -59 220
-216 256 -405 12 -65 24 -81 60 -81 38 0 48 -15 60 -97 10 -63 9 -75 -5 -97
-14 -21 -16 -38 -10 -84 9 -74 17 -88 65 -112 22 -11 40 -24 40 -28 0 -12 39
-440 48 -520 l8 -74 -41 -19 c-40 -19 -112 -105 -151 -179 -28 -53 -24 -149 9
-229 25 -59 26 -69 17 -126 -12 -73 -3 -110 39 -167 28 -38 31 -49 31 -115 0
-67 2 -75 33 -110 17 -21 43 -48 57 -60 29 -28 113 -73 134 -73 10 0 16 -17
20 -57 9 -84 43 -585 61 -893 8 -146 17 -287 20 -315 12 -115 35 -504 41 -695
6 -168 4 -224 -10 -311 l-17 -107 45 -100 c44 -99 107 -214 145 -262 l20 -25
-132 -16 c-221 -28 -267 -39 -267 -59 0 -13 15 -22 58 -33 80 -23 375 -64 582
-82 96 -8 247 -21 334 -30 88 -8 194 -15 238 -15 45 0 78 -4 78 -10 0 -6 27
-10 60 -10 33 0 60 4 60 10 0 6 36 10 88 10 48 0 159 7 247 15 88 8 212 20
275 25 63 5 457 10 875 10 811 0 788 1 1435 -60 129 -12 260 -13 260 -1 0 4
37 11 83 14 208 15 847 97 919 119 36 10 72 38 51 38 -6 0 -20 8 -32 19 -26
23 -162 45 -423 69 l-183 17 -8 63 c-20 165 -104 282 -231 321 -55 17 -76 37
-168 160 -35 46 -35 54 2 68 34 13 36 28 15 88 -8 21 -13 40 -12 41 1 1 25 16
54 33 28 17 59 43 68 58 17 25 17 26 -23 62 -22 20 -68 69 -102 109 l-62 73
25 57 c14 31 28 69 31 85 3 15 8 39 11 53 l6 25 47 -27 c87 -50 104 -56 142
-56 21 0 55 8 75 17 32 13 48 13 94 4 58 -11 107 1 143 33 8 7 28 26 45 41 25
23 41 29 86 30 47 2 62 8 94 35 21 18 59 47 85 65 79 54 97 102 107 281 l6
109 32 11 c47 16 61 34 72 96 6 30 13 68 17 83 5 22 1 34 -16 52 l-23 25 32
102 c36 118 71 298 71 371 0 39 7 62 36 109 51 83 54 121 14 180 -39 59 -103
116 -195 177 -55 36 -81 47 -125 51 l-55 5 -7 45 c-4 25 -19 83 -34 130 -14
47 -34 114 -45 149 l-19 64 40 37 c23 22 40 46 40 59 0 29 -25 77 -66 125 -18
21 -31 43 -28 47 3 5 42 20 88 34 89 27 107 40 125 94 27 81 8 128 -64 160
-27 12 -49 31 -59 50 -18 34 -43 51 -78 51 -19 1 -30 15 -61 83 -21 45 -61
111 -90 147 -70 86 -196 193 -284 242 -68 37 -73 42 -89 91 -24 75 -53 123
-81 136 -54 25 -187 3 -273 -45 l-45 -25 -31 37 c-18 21 -46 62 -64 93 -18 31
-46 75 -62 98 -31 46 -32 45 19 111 142 186 298 707 227 759 -34 25 -80 15
-189 -42 -57 -30 -106 -55 -108 -55 -3 0 -6 63 -9 139 -5 154 -7 160 -70 192
-43 22 -47 29 -76 152 -54 223 -202 436 -424 608 -84 64 -263 164 -378 209
-59 23 -70 33 -70 67 0 18 -21 35 -96 79 -53 31 -115 62 -138 69 -53 16 -93 4
-206 -62 -75 -43 -87 -54 -99 -90 -14 -38 -20 -44 -75 -64 -236 -85 -477 -255
-610 -428 -109 -142 -196 -321 -225 -462 -10 -49 -16 -59 -42 -69 -17 -7 -41
-27 -55 -45 -23 -30 -24 -39 -24 -163 0 -93 -3 -132 -11 -132 -7 0 -48 20 -93
44 -104 56 -158 72 -198 55 -58 -24 -59 -53 -3 -205 19 -50 52 -153 75 -229
54 -179 111 -295 191 -382 16 -18 29 -37 29 -42 0 -5 -35 -17 -77 -26 -176
-38 -190 -46 -228 -140 -20 -51 -30 -64 -68 -84 -65 -35 -167 -120 -202 -168
-16 -23 -38 -42 -47 -42 -25 -1 -88 -79 -138 -172 -40 -73 -49 -84 -80 -91
-95 -23 -120 -52 -120 -135 0 -74 45 -157 136 -252 85 -90 85 -85 13 -142
l-38 -30 -36 40 c-50 55 -107 75 -195 69 -38 -3 -70 -2 -70 2 0 19 -42 494
-49 564 -8 72 -7 82 11 107 12 16 23 50 26 78 4 43 1 53 -21 75 -22 22 -25 35
-31 133 l-7 108 33 20 c40 25 50 68 38 175 -5 41 -5 78 -1 83 4 4 34 -6 67
-22 66 -34 116 -97 140 -179 18 -59 18 -163 0 -232 -8 -30 -13 -57 -11 -59 8
-7 92 49 149 101 175 156 333 481 381 784 35 215 37 523 5 757 -22 158 -82
344 -147 457 -32 55 -82 120 -93 120 -4 0 -18 -28 -30 -62 -13 -35 -41 -98
-64 -142 -97 -186 -286 -268 -448 -194 -60 28 -72 42 -83 101 -10 51 -24 56
-56 18 -22 -27 -32 -32 -50 -26 -39 13 -125 110 -160 180 -76 155 -38 399 91
576 16 23 30 53 30 66 0 29 -26 30 -125 3z m-105 -145 c0 -2 -33 -27 -74 -54
-41 -28 -140 -114 -221 -192 -229 -223 -351 -386 -469 -629 -153 -313 -215
-610 -203 -970 6 -179 21 -265 67 -385 11 -27 22 -68 25 -90 4 -22 9 -49 12
-60 2 -11 -12 7 -32 40 -121 195 -173 425 -162 710 13 315 74 543 232 854 149
296 420 566 740 738 86 46 85 45 85 38z m-24 -127 c-29 -67 -38 -166 -26 -261
l12 -87 -66 -88 c-82 -109 -156 -252 -196 -379 -35 -115 -70 -310 -70 -394 0
-32 -4 -59 -10 -59 -5 0 -40 -20 -77 -44 -111 -71 -211 -191 -268 -320 -42
-94 -113 -304 -121 -352 -9 -60 -17 -45 -40 71 -22 111 -25 455 -6 580 54 335
204 674 415 934 84 104 253 271 367 363 52 42 96 75 98 74 1 -2 -4 -19 -12
-38z m2980 -109 c-3 -17 -6 -145 -6 -284 l0 -253 -47 -23 c-25 -12 -66 -42
-91 -66 -25 -23 -46 -43 -46 -43 -1 0 2 111 5 247 6 256 14 311 52 366 25 37
94 87 120 87 17 0 19 -5 13 -31z m148 -193 l69 -71 5 -204 4 -203 -91 73 -91
74 0 213 c0 247 -11 235 104 118z m-3027 -218 c23 -31 72 -81 108 -109 54 -42
65 -56 60 -73 -21 -73 -35 -182 -35 -273 l0 -105 -34 21 c-19 12 -40 19 -48
16 -9 -4 -60 -81 -114 -172 -54 -91 -114 -182 -131 -201 -18 -19 -33 -39 -33
-45 0 -5 14 -33 32 -61 114 -185 158 -259 156 -261 -5 -5 -193 -77 -229 -87
-36 -11 -36 -11 -100 54 -42 43 -87 76 -132 98 -59 29 -77 33 -142 32 -41 0
-84 -4 -96 -7 -20 -7 -19 -3 11 51 106 188 222 294 320 294 l47 0 0 148 c0
168 14 252 70 402 44 119 101 227 166 316 l50 68 16 -24 c9 -13 35 -50 58 -82z
m939 7 c-8 -74 -59 -232 -105 -325 -45 -94 -139 -195 -218 -238 -57 -29 -162
-64 -235 -77 l-37 -7 -15 53 c-11 35 -16 93 -16 176 0 104 -3 125 -16 130 -29
11 -35 -20 -31 -157 3 -102 9 -148 24 -190 l20 -55 59 3 c213 10 412 129 514
307 38 66 85 203 95 276 7 48 9 51 17 29 5 -14 18 -63 28 -110 61 -280 65
-629 11 -891 -47 -227 -131 -431 -228 -554 l-47 -59 -11 52 c-7 29 -29 86 -49
126 l-36 74 33 55 c19 30 43 85 55 121 28 84 62 274 62 343 0 45 -3 53 -19 53
-15 0 -19 -11 -25 -65 -16 -155 -79 -346 -138 -419 l-24 -28 -62 22 c-46 17
-75 21 -119 18 -52 -5 -63 -1 -140 39 -46 25 -83 48 -83 53 0 4 7 13 16 20 19
17 142 182 173 233 l23 38 -24 37 c-170 256 -210 394 -174 599 24 138 42 166
80 124 34 -38 133 -73 209 -74 154 -4 329 111 402 263 16 33 31 60 33 60 3 0
2 -25 -2 -55z m1965 -218 c117 -89 212 -200 262 -305 36 -77 34 -119 -13 -257
-37 -109 -55 -136 -167 -248 l-89 -87 -92 95 c-51 52 -92 101 -92 109 0 7 -7
19 -16 27 -47 39 -144 224 -144 275 0 17 11 46 25 65 14 19 43 61 65 94 40 62
114 145 188 208 46 41 50 42 73 24z m-351 -237 c0 -5 -8 -18 -18 -28 -14 -14
-53 -23 -168 -36 -82 -10 -200 -27 -261 -40 -84 -16 -113 -19 -113 -9 0 28
-32 26 -107 -9 -11 -6 -26 -9 -33 -6 -15 5 125 53 210 72 36 8 137 23 225 35
88 11 171 22 185 24 50 8 80 7 80 -3z m840 -5 c74 -8 197 -29 272 -47 122 -28
135 -33 120 -45 -11 -9 -12 -12 -2 -7 11 5 12 4 4 -5 -9 -10 -27 -9 -85 3
-126 26 -296 46 -383 46 l-84 0 -11 31 c-6 18 -11 34 -11 35 0 7 43 4 180 -11z
m-910 -125 c0 -16 14 -70 31 -120 17 -50 29 -93 26 -96 -3 -3 -79 -14 -169
-24 -89 -11 -215 -28 -278 -39 -145 -26 -152 -26 -120 1 l25 21 -24 -6 c-13
-3 -20 -2 -15 2 15 14 226 61 388 86 44 7 91 48 101 88 8 32 -18 75 -51 83
-55 14 -124 -33 -124 -85 0 -39 -10 -48 -65 -54 -34 -5 -43 -4 -30 2 16 8 17
10 3 10 -9 1 -35 19 -59 41 -23 21 -46 37 -51 34 -4 -3 -8 -1 -8 5 0 13 144
45 315 70 104 15 105 15 105 -19z m1115 -13 l100 -24 -108 4 c-71 2 -117 8
-137 18 -73 38 -140 4 -140 -70 0 -60 22 -76 117 -86 92 -9 332 -57 353 -70
11 -6 7 -8 -12 -5 -16 3 -28 1 -28 -4 0 -4 -11 -7 -25 -6 -13 2 -22 -1 -19 -6
3 -5 -5 -6 -18 -4 -71 17 -219 37 -332 46 -71 5 -131 12 -134 15 -3 2 4 26 16
52 11 26 26 77 33 112 l12 64 111 -7 c61 -3 156 -16 211 -29z m-187 -52 c2
-23 0 -25 -19 -14 -19 10 -20 9 -14 -13 6 -22 6 -22 -9 -4 -20 25 -20 40 0 61
20 20 39 7 42 -30z m-3277 -22 c36 -38 161 -240 173 -279 5 -17 3 -22 -11 -20
-12 1 -18 -6 -18 -19 0 -19 -85 -129 -177 -229 l-38 -41 -20 25 c-46 56 -180
260 -180 275 0 8 28 56 61 106 34 50 77 121 96 157 19 37 37 70 39 74 8 12 35
-6 75 -49z m2247 34 c2 -11 -3 -17 -17 -17 -23 0 -35 15 -26 31 10 15 39 6 43
-14z m-331 -3 c-3 -3 -12 -4 -19 -1 -8 3 -5 6 6 6 11 1 17 -2 13 -5z m-151
-47 c-11 -8 -19 -27 -20 -45 -1 -20 -7 -33 -18 -35 -14 -4 -15 1 -11 32 6 37
26 61 52 61 12 0 11 -3 -3 -13z m2528 -176 c3 -4 -71 -86 -164 -181 l-170
-172 -15 36 c-16 38 -19 75 -7 91 12 18 110 86 232 162 131 83 117 76 124 64z
m-2979 -43 c28 -17 78 -49 113 -70 96 -59 182 -128 182 -145 0 -26 -33 -123
-42 -123 -4 0 -27 21 -50 48 -49 54 -153 158 -251 251 -37 35 -67 68 -67 73 0
18 62 -1 115 -34z m960 -116 c66 -37 150 -83 187 -102 90 -46 107 -60 110 -89
2 -18 -4 -29 -22 -39 -28 -16 -40 -12 -325 109 -94 40 -106 43 -197 43 -54 1
-98 4 -98 7 0 11 134 117 161 128 44 18 63 12 184 -57z m1240 1 l74 -68 -93
-12 c-75 -9 -127 -25 -262 -78 -248 -99 -267 -106 -276 -92 -4 7 -8 26 -8 43
0 31 4 34 233 152 127 66 238 121 245 121 8 1 47 -29 87 -66z m231 -41 c18
-15 124 -263 124 -291 0 -20 73 -226 96 -273 13 -26 24 -52 24 -58 0 -21 -20
1 -38 44 -11 23 -36 67 -56 96 -20 29 -36 58 -36 66 0 8 -4 14 -9 14 -10 0 4
-57 35 -141 9 -24 18 -55 20 -69 20 -112 24 -137 24 -159 -1 -15 -13 9 -31 59
-16 46 -34 89 -40 95 -18 17 0 -97 28 -178 15 -46 26 -103 29 -157 l5 -85 -40
104 c-44 112 -59 141 -98 183 -24 25 -25 28 -14 96 21 134 13 230 -40 502 -17
85 -33 163 -36 173 -4 16 -2 17 14 8 10 -6 27 -19 39 -29z m-1931 -38 c-21
-67 -52 -263 -65 -414 -9 -99 -17 -137 -38 -180 -47 -97 -52 -110 -47 -110 3
0 22 35 44 78 29 58 41 73 46 60 8 -21 -10 -105 -37 -167 -27 -65 -17 -72 20
-13 36 55 69 78 56 39 -14 -44 -34 -122 -34 -134 0 -25 15 -12 32 27 9 22 24
43 33 46 20 8 42 -20 51 -63 7 -35 13 -40 32 -21 20 20 25 1 26 -89 l1 -87
-34 -23 c-18 -12 -37 -20 -42 -17 -5 3 -9 27 -9 55 0 27 -4 49 -9 49 -18 0
-49 -51 -56 -90 -5 -30 -14 -43 -33 -53 -21 -10 -27 -20 -27 -45 0 -29 -1 -31
-12 -15 -8 10 -13 47 -13 90 0 40 -4 73 -9 73 -15 0 -52 -66 -58 -103 -8 -51
21 -137 59 -176 18 -19 58 -46 88 -60 98 -46 276 -31 363 31 15 11 31 18 34
15 3 -3 -10 -61 -28 -129 -70 -265 -47 -525 76 -848 24 -63 43 -115 42 -116
-4 -4 -216 251 -255 306 -87 124 -151 275 -172 407 -19 117 -43 135 -60 46 -6
-32 -14 -71 -19 -88 l-8 -30 -17 40 c-40 93 -96 277 -110 364 -30 180 -13 591
31 766 4 15 -5 11 -34 -18 -22 -20 -43 -34 -48 -30 -4 5 -5 3 -1 -4 3 -6 2
-14 -4 -18 -5 -3 -10 0 -10 7 -1 7 -12 0 -26 -17 -23 -26 -21 -20 10 40 20 38
36 76 36 84 0 9 32 125 70 258 39 134 70 254 70 267 0 32 23 51 40 32 9 -12 6
-35 -19 -115 -17 -55 -38 -135 -47 -178 -10 -47 -33 -113 -61 -167 -24 -48
-42 -90 -40 -93 3 -2 23 23 44 55 32 48 43 77 57 150 22 122 117 394 132 379
2 -2 -3 -26 -11 -53z m2390 -15 c-17 -75 -86 -245 -125 -304 -24 -36 -45 -64
-47 -61 -2 2 6 32 18 67 15 47 20 78 16 117 -5 50 -4 54 35 100 52 60 101 112
106 112 2 0 1 -14 -3 -31z m-1624 4 c13 -16 12 -17 -3 -4 -10 7 -18 15 -18 17
0 8 8 3 21 -13z m419 13 c0 -2 -7 -7 -16 -10 -8 -3 -12 -2 -9 4 6 10 25 14 25
6z m-1540 -198 c0 -25 11 -76 25 -112 43 -114 30 -121 -41 -25 -28 39 -103
216 -132 313 -3 11 29 -14 71 -56 73 -72 77 -77 77 -120z m1217 80 c25 -38 52
-72 61 -77 11 -6 -3 -11 -46 -16 -76 -9 -87 -3 -67 35 21 41 19 87 -7 123 -18
26 -18 29 -4 17 10 -8 39 -45 63 -82z m224 31 c-5 -13 -13 -45 -16 -71 l-6
-48 -56 0 -56 0 46 40 c25 22 56 56 68 76 23 39 35 40 20 3z m750 -79 c10 -41
25 -100 34 -130 24 -86 12 -107 -90 -165 -47 -26 -85 -49 -85 -52 0 -2 13 -15
29 -29 16 -13 43 -52 61 -87 26 -50 32 -69 25 -93 -5 -18 -9 -23 -12 -14 -3 8
-7 22 -10 30 -4 8 -7 17 -7 20 -5 17 -29 51 -33 46 -3 -3 -11 2 -18 11 -15 20
-39 8 -30 -16 3 -9 -11 0 -32 20 -21 20 -54 46 -73 59 -19 13 -37 27 -40 30
-20 24 -186 97 -196 87 -2 -2 33 -27 78 -54 155 -95 212 -162 237 -281 6 -29
11 -69 11 -88 l0 -35 -102 104 c-77 78 -120 112 -170 138 l-68 34 0 59 c0 47
-6 68 -27 101 -33 53 -52 65 -114 72 -59 7 -71 19 -32 34 28 11 55 9 173 -11
51 -8 82 -8 145 3 110 20 149 38 182 86 30 43 70 59 118 47 14 -4 25 -2 25 3
0 5 -35 42 -78 82 l-78 74 80 -5 80 -5 17 -75z m-1692 1 c-38 -42 -69 -79 -69
-82 0 -4 18 -2 41 3 37 10 42 9 57 -13 9 -13 30 -38 47 -56 63 -64 231 -85
376 -49 83 21 124 17 134 -14 9 -29 16 -25 50 27 45 68 77 88 138 87 68 0 122
-27 159 -78 16 -23 37 -41 46 -41 10 0 18 -9 20 -22 2 -13 -2 -23 -8 -23 -6 0
-8 -5 -5 -10 4 -7 13 -7 26 0 25 14 83 3 103 -19 8 -9 19 -28 25 -43 9 -24 7
-30 -16 -48 -14 -11 -38 -20 -53 -20 -15 0 -50 -15 -76 -33 -73 -50 -139 -72
-216 -72 -60 0 -76 5 -170 52 -57 29 -112 54 -122 55 -28 4 -41 50 -24 85 17
36 52 53 89 43 37 -11 61 13 30 29 -37 20 -131 5 -131 -21 0 -5 -5 -6 -10 -3
-6 4 -10 3 -9 -2 1 -4 -7 -28 -19 -53 -23 -49 -28 -100 -12 -130 9 -17 1 -24
-69 -60 -92 -48 -182 -126 -236 -204 -21 -31 -40 -54 -42 -52 -2 2 0 38 6 81
12 102 56 191 119 244 26 22 76 63 111 92 36 29 60 54 54 56 -27 9 -173 -87
-264 -175 l-47 -44 5 54 c2 29 5 60 5 68 1 8 -11 23 -27 35 -94 67 -112 84
-129 119 -18 36 -18 46 -7 115 7 42 22 104 33 139 l19 63 69 -2 69 -2 -70 -76z
m181 -75 c33 -29 47 -35 109 -41 39 -4 99 -4 133 0 58 7 61 6 49 -9 -36 -43
-153 -65 -244 -47 -99 21 -173 123 -93 130 5 1 25 -14 46 -33z m1288 8 c4 -29
-66 -90 -120 -105 -24 -6 -68 -9 -100 -5 -61 6 -138 33 -138 47 0 5 42 9 93 9
112 0 155 11 198 51 36 33 62 35 67 3z m-3412 2 c92 -32 154 -68 160 -92 11
-43 -7 -51 -93 -41 -68 7 -225 4 -264 -6 -8 -2 -10 -2 -6 1 5 2 1 13 -9 23 -9
10 -13 19 -8 19 5 0 2 5 -6 10 -9 6 -11 10 -3 10 7 0 10 6 7 14 -3 8 -13 12
-22 10 -9 -3 1 6 23 20 22 14 60 28 85 31 25 4 52 8 60 9 29 7 38 6 76 -8z
m99 -206 c11 -5 16 -9 10 -9 -5 -1 -4 -5 3 -10 7 -4 14 -19 15 -32 0 -13 5
-27 10 -30 4 -3 -43 -9 -105 -12 -62 -3 -145 -11 -185 -18 -40 -7 -74 -11 -77
-8 -3 2 -6 17 -8 32 -3 16 -10 32 -17 36 -12 8 54 42 104 54 35 8 229 6 250
-3z m2345 -276 c0 -3 -11 -22 -25 -42 -39 -58 -30 -66 26 -22 28 22 54 40 59
40 14 0 30 -26 36 -59 5 -25 10 -30 26 -25 14 4 111 -26 137 -43 2 -1 -15 -32
-38 -67 -29 -44 -55 -72 -82 -85 l-40 -21 7 50 c4 30 3 50 -3 50 -5 0 -32 -27
-58 -60 -42 -53 -65 -72 -65 -55 0 3 12 28 26 56 14 28 22 54 19 57 -4 4 -39
-28 -78 -71 -40 -43 -75 -77 -79 -77 -3 0 0 21 8 47 26 85 7 73 -76 -48 -34
-49 -64 -88 -66 -86 -2 2 3 21 11 42 9 20 14 39 11 42 -2 3 -28 -14 -57 -37
-93 -73 -142 -93 -245 -98 -58 -3 -106 0 -130 8 l-38 13 77 26 c103 35 150 71
239 182 125 156 196 220 288 263 50 23 110 34 110 20z m772 -38 c58 -37 123
-103 209 -211 99 -124 189 -195 283 -225 l39 -13 -24 -13 c-35 -19 -184 -18
-244 3 -36 12 -72 38 -137 101 -48 47 -88 82 -88 78 0 -4 17 -38 37 -74 36
-65 36 -66 9 -42 -16 14 -54 59 -86 100 -92 121 -114 131 -75 35 14 -32 23
-61 21 -63 -2 -2 -36 27 -75 64 -39 37 -74 64 -77 61 -4 -3 -1 -21 5 -39 11
-32 10 -31 -33 17 -25 28 -45 53 -46 58 0 12 -20 8 -20 -5 0 -7 11 -37 25 -65
13 -29 20 -53 14 -53 -44 0 -159 81 -184 130 -23 45 -20 53 20 47 19 -3 35 -3
35 1 0 10 52 32 61 26 5 -3 9 4 9 15 0 27 8 26 38 -1 l25 -23 -7 37 c-4 22 -2
39 4 43 10 6 68 -29 82 -49 4 -6 10 -8 13 -4 4 3 -3 24 -14 47 -12 22 -21 42
-21 45 0 8 63 14 107 10 26 -2 62 -17 95 -38z m554 -13 c9 -27 32 -84 50 -127
47 -109 62 -221 45 -323 -40 -237 -88 -409 -152 -538 -85 -171 -85 -171 -86
-3 -1 131 -22 286 -48 349 -5 13 2 17 39 21 60 7 130 43 183 93 39 38 43 46
43 91 0 66 -16 117 -46 154 -31 36 -44 38 -44 6 0 -13 -3 -37 -6 -54 -6 -28
-9 -30 -30 -21 -14 5 -49 27 -79 50 -60 45 -75 78 -75 159 1 45 1 45 19 23 14
-16 21 -19 30 -10 6 6 11 16 11 23 0 19 27 37 32 22 3 -7 16 10 29 37 30 61
52 95 61 95 3 0 14 -21 24 -47z m-2427 -213 c1 -42 6 -114 12 -160 13 -109 85
-482 104 -546 25 -81 21 -92 -32 -116 -27 -11 -86 -38 -131 -59 -46 -22 -93
-39 -104 -39 -33 0 -180 74 -285 143 -113 75 -191 150 -208 201 -12 34 -11 34
61 -33 101 -92 371 -251 429 -251 17 0 222 98 230 109 3 5 -4 43 -15 83 -43
158 -72 334 -95 568 -19 194 -19 234 0 226 10 -3 15 1 16 12 3 42 18 -71 18
-138z m-1231 53 c-14 -3 -16 -9 -8 -23 19 -36 -9 -46 -166 -58 -160 -13 -167
-12 -162 38 3 24 7 26 98 36 92 11 273 16 238 7z m4299 -8 c0 -8 -22 -41 -49
-72 -128 -152 -259 -516 -261 -730 0 -86 13 -111 77 -142 59 -27 95 -27 137 3
47 34 139 87 229 132 41 20 115 59 165 87 95 52 263 122 273 113 3 -3 0 -6 -7
-6 -7 0 -10 -4 -6 -9 3 -5 0 -13 -6 -16 -5 -4 -8 -13 -5 -20 6 -16 -641 -343
-696 -352 -31 -4 -54 2 -129 38 l-92 44 7 127 c10 203 52 380 124 523 30 62
102 171 134 205 18 20 99 90 104 90 0 0 1 -7 1 -15z m-3163 -72 c10 -118 55
-433 82 -570 13 -68 24 -124 24 -126 0 -2 -35 -20 -78 -41 l-78 -38 -89 34
c-125 47 -325 182 -356 240 -9 16 -8 19 2 13 9 -6 11 -2 7 13 -9 32 3 27 47
-18 53 -54 164 -130 261 -179 94 -47 123 -55 169 -47 50 10 53 35 21 210 -66
372 -75 586 -25 586 4 0 10 -35 13 -77z m3019 58 c4 0 -10 -25 -32 -53 -84
-113 -168 -304 -212 -483 -22 -90 -40 -301 -32 -365 5 -36 12 -45 57 -74 72
-45 145 -78 186 -83 28 -3 56 8 145 57 274 151 615 300 615 269 0 -5 -6 -9
-14 -9 -8 0 -18 -5 -22 -12 -5 -7 -2 -8 7 -3 10 6 9 3 -2 -9 -8 -9 -80 -47
-160 -84 -79 -38 -193 -96 -252 -131 -136 -78 -285 -151 -310 -151 -11 0 -53
16 -94 35 -41 19 -77 35 -79 35 -3 0 -34 17 -69 37 l-65 37 0 131 c0 266 61
510 177 713 76 132 98 153 156 143z m-3114 -380 c17 -107 30 -196 27 -198 -2
-2 -11 3 -20 13 -18 17 -64 12 -79 -9 -5 -9 -10 -7 -18 6 -5 9 -36 50 -68 90
-64 79 -93 130 -110 194 -10 36 -9 45 6 65 35 45 103 108 155 143 l53 35 12
-72 c6 -40 25 -160 42 -267z m1591 308 c0 -5 -7 -9 -15 -9 -9 0 -15 9 -15 21
0 18 2 19 15 9 8 -7 15 -16 15 -21z m1676 -48 c-18 -34 -16 -36 59 -74 105
-52 207 -167 275 -308 45 -94 44 -101 -30 -134 -56 -25 -116 -8 -132 36 -12
34 -32 25 -33 -14 0 -12 -6 -21 -12 -19 -7 1 -12 -1 -11 -5 1 -5 -6 -20 -16
-35 -10 -15 -15 -32 -11 -38 3 -5 1 -10 -4 -10 -6 0 -11 8 -11 18 0 14 -2 15
-10 2 -8 -13 -11 -13 -27 3 -9 9 -12 17 -6 17 6 0 14 -6 16 -12 3 -8 6 -6 6 5
1 23 -46 23 -71 0 -11 -9 -18 -11 -18 -5 0 7 -9 10 -20 9 -12 -2 -43 0 -70 3
-27 3 -46 2 -43 -3 3 -4 -1 -8 -8 -7 -8 1 -25 -1 -39 -6 -14 -4 -27 -7 -30 -5
-3 1 -8 -8 -12 -21 l-6 -23 -1 24 c-1 13 7 30 17 38 9 8 11 11 3 7 -31 -16 19
176 86 330 34 77 92 170 143 229 30 35 34 34 16 -2z m-1481 -55 c114 -35 205
-70 205 -78 0 -4 -27 -21 -59 -38 l-59 -29 -84 47 -83 47 -105 0 -105 0 -102
-49 -103 -49 -36 19 c-34 18 -61 42 -53 47 2 1 40 15 84 30 44 16 105 38 135
49 30 11 73 24 95 28 62 14 182 3 270 -24z m-239 -104 c-7 -12 -15 -62 -10
-62 3 0 12 16 20 35 14 35 43 46 70 27 20 -14 92 -168 118 -252 37 -125 47
-206 48 -385 1 -248 -35 -399 -175 -738 -33 -81 -64 -144 -68 -140 -3 5 -11
108 -18 231 -6 122 -15 266 -21 320 -5 53 -12 132 -16 176 -4 59 -9 75 -17 67
-13 -13 -14 -222 -3 -488 3 -79 4 -143 2 -143 -13 0 -128 193 -192 320 -89
179 -113 250 -126 365 -5 50 -12 106 -15 125 -5 34 -5 35 -15 10 -21 -52 4
-362 37 -465 3 -11 -10 11 -30 48 -47 90 -91 221 -111 337 -28 160 -9 382 42
511 9 21 19 39 24 39 4 0 16 -19 26 -42 14 -32 18 -62 17 -115 -3 -79 6 -92
25 -40 7 17 21 43 33 57 l21 25 -6 -40 c-3 -22 -9 -50 -12 -62 -12 -44 12 -22
45 42 30 59 123 156 136 143 3 -3 -8 -34 -24 -69 -58 -130 -83 -227 -88 -344
-3 -64 0 -121 5 -135 9 -22 11 -18 11 28 2 102 60 333 112 440 28 58 132 182
152 182 4 0 6 -4 3 -8z m261 -108 c58 -38 118 -115 154 -199 13 -30 27 -55 32
-55 12 0 7 72 -12 143 -21 79 -3 74 29 -9 15 -39 19 -44 21 -24 4 59 7 107 8
133 1 15 5 27 11 27 11 0 45 -74 61 -134 25 -90 8 -277 -41 -472 -36 -143 -53
-175 -45 -83 7 77 -12 300 -29 342 -9 23 -11 -7 -12 -155 0 -270 -35 -423
-136 -606 -42 -77 -96 -146 -83 -107 3 11 15 58 26 104 82 344 57 820 -57
1070 -13 29 -24 60 -24 68 0 16 12 11 97 -43z m403 23 c19 -13 56 -32 82 -42
26 -10 52 -23 58 -29 15 -19 40 -192 40 -279 0 -150 -53 -330 -132 -444 -71
-102 -168 -227 -168 -216 0 6 13 53 29 105 45 146 63 280 63 473 0 144 -4 189
-26 297 -14 70 -26 134 -26 143 0 23 40 19 80 -8z m-2379 -184 c13 -16 12 -17
-3 -4 -17 13 -22 21 -14 21 2 0 10 -8 17 -17z m79 -53 c13 -8 13 -11 1 -22
-11 -11 -13 -11 -6 1 6 11 4 13 -9 8 -9 -4 -15 -3 -11 2 3 5 -1 12 -7 14 -9 4
-8 6 2 6 8 0 22 -4 30 -9z m3560 -80 c0 -11 -59 -34 -67 -26 -3 3 -1 17 5 31
10 22 14 24 37 13 14 -6 25 -14 25 -18z m-370 -50 c0 -5 -2 -10 -4 -10 -3 0
-8 5 -11 10 -3 6 -1 10 4 10 6 0 11 -4 11 -10z m230 -2 c0 -4 -4 -8 -9 -8 -6
0 -12 4 -15 8 -3 5 1 9 9 9 8 0 15 -4 15 -9z m-308 -58 c5 0 8 7 5 14 -4 10
-1 13 8 10 10 -4 11 -12 5 -30 -6 -15 -6 -24 0 -24 6 0 10 7 10 15 0 8 4 15 9
15 5 0 7 -9 4 -20 -6 -23 -43 -28 -43 -6 0 8 -4 18 -10 21 -5 3 -10 -1 -10
-10 0 -9 13 -24 30 -33 41 -23 50 -48 10 -27 -35 18 -50 43 -50 82 1 24 2 25
11 11 5 -10 15 -18 21 -18z m136 -41 c2 -12 -6 -18 -27 -21 -27 -4 -31 -2 -31
19 0 21 4 24 27 21 16 -2 29 -10 31 -19z m-3892 -25 c19 -9 44 -29 55 -45 l20
-29 -71 -85 c-78 -93 -91 -99 -156 -68 -35 17 -36 19 -31 63 10 80 40 153 67
167 34 17 75 16 116 -3z m-435 -40 c122 -23 159 -47 159 -105 0 -20 -3 -21
-47 -14 -27 4 -84 10 -128 15 -44 4 -88 11 -97 15 -22 9 -23 -2 -3 -49 l15
-36 73 -1 c126 -1 167 -12 200 -53 16 -19 51 -48 78 -62 53 -30 61 -47 27 -65
-32 -17 -358 -6 -425 15 -57 18 -100 60 -122 121 -11 32 -10 40 8 78 26 52 65
97 115 131 46 31 41 30 147 10z m569 -155 c5 -28 26 -76 45 -108 42 -68 48
-133 15 -172 -10 -13 -19 -20 -20 -16 0 5 -7 1 -16 -7 -8 -9 -20 -14 -25 -10
-5 3 -28 43 -50 89 l-41 84 28 58 c22 46 28 71 27 123 -1 61 0 63 13 37 8 -15
19 -50 24 -78z m4195 -63 c-128 -64 -173 -82 -183 -74 -21 18 270 154 333 157
11 0 -56 -37 -150 -83z m-3619 -158 c40 -78 46 -99 48 -156 1 -63 0 -66 -29
-83 -16 -9 -43 -20 -58 -23 l-28 -7 6 68 c8 79 -8 165 -54 293 -17 47 -31 86
-31 88 0 2 22 -18 50 -44 32 -30 66 -78 96 -136z m3798 151 c-3 -6 -1 -15 6
-19 8 -5 7 -9 -5 -13 -10 -5 -14 -3 -9 4 4 7 1 10 -7 7 -8 -3 -13 -10 -12 -16
2 -6 -4 -9 -12 -6 -8 4 -15 1 -15 -5 0 -6 -37 -29 -82 -52 -45 -23 -111 -59
-145 -81 -75 -47 -88 -47 -203 10 -75 37 -99 62 -61 62 11 0 31 5 44 11 20 9
32 6 74 -20 28 -17 61 -31 73 -31 13 0 62 21 109 47 80 44 226 111 244 112 5
1 5 -4 1 -10z m-4020 -59 c20 -33 43 -86 52 -118 20 -67 24 -208 7 -237 -7
-11 -13 -14 -13 -7 0 7 -4 10 -10 7 -6 -4 -10 8 -10 29 0 52 -9 66 -40 66 -22
0 -31 -6 -38 -27 -7 -21 -8 -12 -4 38 4 54 -1 87 -27 179 -17 62 -30 114 -28
116 1 2 15 -7 30 -19 18 -14 31 -37 37 -67 8 -39 9 -35 4 28 -3 39 -3 72 0 72
3 0 21 -27 40 -60z m-133 -48 c25 -67 35 -173 21 -222 -7 -26 -10 -29 -11 -12
-1 12 -5 22 -11 22 -5 0 -10 20 -10 44 0 41 -35 237 -46 261 -3 5 4 0 15 -13
11 -13 30 -49 42 -80z m954 69 c-3 -5 3 -12 12 -14 10 -3 6 -4 -9 -4 -21 1
-24 4 -16 14 12 15 22 18 13 4z m42 3 c-3 -3 -12 -4 -19 -1 -8 3 -5 6 6 6 11
1 17 -2 13 -5z m1953 -19 c19 -14 29 -25 22 -25 -7 0 -12 -4 -12 -9 0 -5 8 -7
18 -5 18 4 70 -36 74 -58 2 -7 13 -28 26 -46 l24 -33 -26 -43 c-33 -56 -87
-103 -154 -134 -74 -33 -146 -28 -200 15 -45 37 -75 85 -70 115 3 21 9 17 62
-39 34 -36 72 -67 93 -74 68 -22 160 15 226 93 42 49 43 52 22 101 -8 19 -13
36 -11 38 1 2 -6 12 -16 22 -10 9 -18 14 -18 11 0 -4 -7 -1 -15 6 -9 7 -18 10
-22 7 -8 -8 -73 65 -67 75 7 11 6 11 44 -17z m-1829 -127 l29 -36 -25 -31
c-17 -20 -31 -28 -42 -24 -11 4 -14 2 -9 -5 5 -8 0 -12 -13 -12 -12 0 -21 7
-21 15 0 8 -7 15 -16 15 -9 0 -28 9 -42 21 -23 18 -27 18 -32 5 -5 -14 -8 -14
-22 3 -16 19 -14 23 54 86 l71 65 20 -32 c11 -18 33 -49 48 -70z m1773 46 c26
-25 46 -47 44 -49 -2 -1 -13 -8 -26 -14 -13 -7 -27 -23 -32 -37 -6 -14 -14
-23 -19 -20 -10 7 -21 -17 -21 -45 0 -18 -2 -19 -37 -4 -41 16 -83 57 -83 80
0 13 109 134 121 135 3 0 27 -21 53 -46z m1446 -116 c18 -51 39 -105 46 -120
14 -26 13 -27 -23 -37 -21 -6 -43 -11 -49 -11 -29 0 -165 -79 -238 -138 -73
-59 -322 -200 -333 -188 -9 8 103 84 199 136 112 59 167 114 198 196 20 55 26
94 13 94 -11 0 -76 -73 -111 -123 -27 -41 -46 -54 -117 -87 -103 -47 -139 -55
-193 -40 -47 12 -158 84 -178 116 -13 19 -10 23 63 60 56 28 94 40 142 45 46
4 99 20 176 54 61 26 157 63 215 82 57 19 111 38 120 43 30 18 38 9 70 -82z
m-5100 45 c117 -3 210 -1 231 5 20 5 42 6 49 2 7 -5 15 -33 18 -63 5 -66 4
-67 -125 -99 -119 -29 -315 -32 -356 -5 -43 28 -67 75 -67 131 0 48 0 48 28
41 15 -3 115 -9 222 -12z m1590 -19 c0 -51 121 -174 170 -174 19 0 77 40 168
117 49 42 52 43 40 16 -19 -46 -55 -90 -93 -113 -44 -27 -126 -36 -168 -19
-18 8 -38 14 -46 14 -16 0 -73 74 -96 124 -11 25 -12 37 -4 47 13 16 29 9 29
-12z m-1330 -224 c15 -54 7 -72 -38 -97 -155 -87 -349 -80 -388 13 -24 58 -18
68 46 65 65 -2 246 22 310 43 25 8 48 14 52 15 4 1 12 -17 18 -39z m5010 -69
c-19 -5 -26 -14 -28 -39 -3 -25 -9 -33 -30 -38 -97 -20 -126 -30 -207 -69 -90
-43 -276 -180 -309 -226 -16 -24 -22 -69 -8 -69 4 0 45 39 92 86 73 73 100 93
185 134 96 47 201 80 255 80 21 0 25 -5 26 -29 1 -27 -2 -29 -72 -44 -94 -20
-214 -80 -329 -162 -118 -84 -119 -86 -93 -155 44 -119 44 -124 16 -179 -24
-48 -26 -49 -42 -32 -15 17 -15 21 4 64 20 44 20 49 5 80 -8 18 -37 60 -65 94
-27 33 -46 64 -42 68 4 5 3 6 -3 3 -5 -3 -15 0 -22 7 -14 15 -5 29 90 138 107
122 282 246 402 283 22 7 76 13 120 12 47 0 70 -3 55 -7z m-3972 -229 c6 -19
26 -51 43 -73 29 -37 31 -43 25 -97 -12 -103 -14 -108 -57 -127 -37 -17 -41
-23 -64 -99 -13 -45 -33 -134 -45 -198 -22 -126 -21 -137 23 -185 l20 -22 -57
-75 c-98 -130 -195 -342 -211 -461 -10 -75 11 -180 51 -262 l35 -72 -55 -74
c-30 -40 -66 -81 -80 -90 -14 -10 -26 -24 -26 -31 0 -17 53 -63 98 -84 28 -14
33 -20 28 -42 -3 -14 -9 -48 -12 -76 -6 -47 -5 -52 15 -59 37 -11 32 -22 -74
-154 -32 -40 -51 -53 -94 -67 -69 -23 -127 -67 -168 -128 -39 -57 -52 -98 -60
-189 -7 -77 0 -72 -120 -82 -46 -4 -73 -2 -73 4 0 5 18 42 39 83 22 40 56 120
76 177 36 102 37 105 26 180 -12 81 -34 320 -51 541 -13 172 -57 770 -70 960
-10 137 -57 746 -62 800 -2 14 2 24 7 23 6 0 55 -10 110 -22 163 -33 406 -24
539 20 71 24 195 95 204 118 4 9 11 -9 17 -44 6 -33 17 -75 23 -93z m1922 93
c17 -20 -3 -45 -36 -45 -18 0 -24 5 -24 23 0 13 3 27 7 30 11 12 40 8 53 -8z
m1069 -50 c16 -5 19 -21 24 -123 5 -116 22 -189 52 -222 15 -17 64 -140 72
-183 3 -17 0 -34 -10 -45 -9 -9 -19 -40 -22 -67 -6 -44 -12 -53 -45 -74 -53
-33 -83 -77 -96 -141 -10 -53 -11 -54 -24 -30 -7 14 -23 37 -36 51 l-25 26 31
38 c37 46 37 61 5 206 -41 183 -51 206 -91 221 -34 12 -34 12 -34 77 0 60 3
68 41 118 40 54 62 105 73 174 l6 37 31 -29 c16 -15 38 -31 48 -34z m-2157
-60 c14 -31 -3 -56 -34 -50 -34 7 -43 21 -30 50 15 33 49 33 64 0z m2483 -24
c-11 -10 -31 -22 -45 -26 -24 -6 -24 -6 -5 7 60 40 79 47 50 19z m595 -30
c-14 -4 -24 -14 -22 -21 3 -11 0 -11 -12 -1 -8 7 -21 11 -28 8 -8 -4 -7 -6 4
-6 20 -1 14 -29 -11 -48 -11 -7 -16 -30 -18 -67 0 -30 -4 -60 -8 -66 -4 -7 2
-24 12 -39 14 -18 19 -37 16 -61 -3 -27 -2 -31 6 -20 9 13 11 13 11 -2 0 -9 6
-19 13 -21 7 -3 5 -6 -5 -6 -22 -1 -22 -5 -2 -36 11 -17 14 -33 8 -57 -4 -18
-7 -36 -6 -40 3 -11 3 -11 -125 22 -134 35 -133 35 -133 15 0 -13 73 -52 210
-113 14 -6 19 -11 12 -11 -7 -1 -10 -5 -7 -11 3 -5 1 -10 -5 -10 -12 0 -239
94 -273 113 -12 7 -23 12 -24 13 -2 0 6 18 17 39 26 52 25 91 -5 171 -18 48
-22 70 -15 79 18 21 174 123 216 141 51 23 132 42 169 42 29 0 29 0 5 -7z
m-2465 -240 c5 -5 75 -42 155 -84 120 -62 269 -143 277 -151 4 -4 -37 -88 -49
-99 -18 -16 -38 -20 -38 -6 0 5 -4 7 -10 4 -16 -10 -12 18 6 44 l16 23 -31
-16 c-34 -18 -37 -31 -32 -160 2 -48 0 -67 -8 -62 -7 5 -11 46 -11 114 l0 107
31 26 c31 25 33 49 4 49 -8 0 -54 20 -102 44 -48 24 -124 60 -169 79 l-80 36
-145 -63 c-142 -62 -221 -104 -234 -126 -4 -7 2 -18 13 -25 22 -16 35 -52 21
-61 -6 -4 -6 -11 1 -19 6 -8 7 -16 2 -19 -5 -3 -12 -19 -15 -36 -4 -16 -10
-30 -15 -30 -12 0 -32 61 -39 119 -3 28 -8 51 -10 51 -2 0 -12 -7 -21 -16 -15
-15 -16 -15 -23 2 -3 11 -5 24 -2 29 5 14 162 113 318 200 133 74 149 78 190
46z m66 -143 c60 -28 109 -54 109 -58 0 -14 -38 -6 -117 26 -45 19 -91 34
-101 34 -11 0 -46 -12 -77 -26 -89 -39 -203 -76 -217 -71 -7 3 21 20 62 38 41
19 108 51 150 71 41 20 77 37 79 37 2 1 53 -22 112 -51z m-1061 -48 c0 -8 -25
-52 -57 -99 -1 -2 -14 -5 -28 -7 -22 -2 -25 1 -19 19 10 34 36 81 48 89 16 11
56 10 56 -2z m1038 -40 c135 -64 182 -97 181 -129 -1 -17 -3 -20 -6 -8 -2 9
-9 15 -14 12 -5 -4 -9 1 -9 11 0 15 -2 15 -22 0 -13 -8 -65 -43 -115 -77 -67
-44 -93 -67 -94 -83 0 -11 -3 -15 -6 -8 -2 6 -9 10 -14 7 -5 -4 -34 -13 -65
-21 -47 -12 -62 -12 -97 -1 -36 12 -46 22 -69 68 -25 49 -27 58 -16 98 11 43
12 44 124 98 63 30 116 58 119 64 9 13 8 13 103 -31z m939 34 c-3 -3 -12 -4
-19 -1 -8 3 -5 6 6 6 11 1 17 -2 13 -5z m-750 -19 c20 -8 34 -18 30 -21 -3 -3
-22 4 -44 15 -45 24 -37 27 14 6z m713 5 c26 -14 50 -66 57 -123 5 -41 9 -48
24 -44 20 5 24 -8 13 -37 -13 -34 -33 -15 -44 42 -13 59 -41 124 -68 155 -17
19 -10 22 18 7z m70 -36 c12 -19 20 -37 18 -39 -2 -3 -15 13 -27 35 -28 50
-21 53 9 4z m228 22 c-7 -8 -17 -12 -22 -9 -4 3 -2 9 5 14 22 13 31 11 17 -5z
m672 7 c0 -5 -11 -8 -24 -8 -13 0 -22 3 -19 8 2 4 13 7 24 7 10 0 19 -3 19 -7z
m-2670 -39 c62 -10 67 -12 28 -11 -26 0 -51 -3 -55 -8 -5 -4 30 -5 77 -2 64 5
80 4 66 -5 -26 -14 -289 -5 -294 11 -2 6 -8 9 -13 5 -11 -6 -11 -2 -3 21 7 18
39 16 194 -11z m2610 22 c0 -3 -4 -8 -10 -11 -5 -3 -10 -1 -10 4 0 6 5 11 10
11 6 0 10 -2 10 -4z m150 -7 c15 -19 311 -149 338 -149 13 0 14 -2 4 -9 -11
-6 -10 -11 4 -25 16 -17 15 -17 -22 -10 -72 13 -451 137 -463 151 -3 3 1 4 10
1 9 -4 16 -1 16 8 0 9 -7 12 -19 8 -10 -3 -18 -1 -18 4 0 9 4 10 52 15 16 2
31 6 34 10 7 7 57 4 64 -4z m-1162 -8 c18 -11 -87 -33 -171 -34 -36 -1 -60 -5
-54 -9 7 -5 2 -8 -13 -9 -14 0 -33 -2 -42 -4 -20 -4 -25 13 -5 20 19 8 219 43
247 44 14 0 31 -3 38 -8z m-1418 -166 c0 -100 -24 -188 -61 -221 -30 -27 -31
-12 -1 42 26 46 27 56 27 182 0 128 1 132 18 111 13 -17 17 -41 17 -114z
m1080 15 c0 -83 -1 -90 -20 -90 -23 0 -23 -4 -10 80 21 129 30 132 30 10z
m1296 30 c28 -28 559 -214 659 -231 l78 -13 -6 -96 c-3 -52 -9 -105 -13 -117
-6 -23 -47 -53 -97 -72 -28 -11 -29 -11 -25 26 4 51 -16 53 -49 3 -49 -74 -93
-118 -136 -138 -23 -11 -43 -19 -45 -17 -1 1 15 35 37 75 38 71 43 100 16 100
-7 0 -37 -29 -65 -65 -28 -36 -55 -65 -58 -65 -4 0 -38 -27 -77 -60 -44 -37
-79 -60 -94 -60 -36 0 -109 38 -128 66 -14 23 -14 28 2 64 22 49 40 65 74 65
24 0 26 3 23 40 -4 59 -42 214 -54 221 -8 5 -113 33 -129 34 -3 0 -2 -17 4
-38 7 -28 6 -50 -6 -93 -22 -75 -57 -109 -112 -109 -25 0 -48 6 -55 15 -24 28
14 115 50 115 27 0 25 15 -5 37 l-26 18 25 94 c14 51 31 103 39 114 7 12 45
37 83 58 81 43 77 42 90 29z m-978 -42 c-4 -30 -43 -37 -51 -9 -6 25 0 31 30
31 20 0 24 -5 21 -22z m-1228 -50 c0 -16 -3 -19 -11 -11 -6 6 -8 16 -5 22 11
17 16 13 16 -11z m-541 -34 c14 -12 -39 -1 -55 11 -17 13 -16 14 16 3 19 -6
37 -13 39 -14z m1440 -26 c1 12 5 22 10 22 4 0 6 -11 3 -25 -6 -32 -26 -27
-29 6 l-2 24 8 -25 c9 -24 9 -24 10 -2z m-904 -29 c-5 -15 -4 -19 4 -14 8 5
10 -1 5 -20 -6 -22 1 -33 44 -75 70 -67 288 -210 320 -210 18 0 310 198 325
221 21 29 29 10 23 -52 -6 -52 -20 -74 -41 -62 -5 4 -7 3 -3 -2 11 -11 -60
-58 -74 -49 -6 4 -8 3 -5 -3 10 -15 -158 -114 -171 -101 -7 7 -12 3 -17 -11
-3 -12 -11 -19 -16 -16 -5 4 -9 2 -9 -3 0 -38 -146 41 -371 203 l-88 63 20 26
c11 14 27 48 35 76 8 27 17 50 20 50 3 0 2 -10 -1 -21z m629 -26 l20 -26 -35
-29 c-19 -16 -63 -47 -99 -69 -36 -22 -80 -52 -99 -65 -42 -29 -47 -30 -62 -3
-6 12 -7 19 -1 15 13 -8 71 36 167 127 44 42 82 76 85 76 3 0 14 -12 24 -26z
m73 5 c-3 -8 -6 -5 -6 6 -1 11 2 17 5 13 3 -3 4 -12 1 -19z m-520 -45 c32 -32
76 -72 97 -88 22 -17 37 -36 35 -43 -4 -13 -161 79 -206 120 -20 19 -21 22 -6
44 8 13 17 24 18 24 2 0 29 -26 62 -57z m530 5 c-3 -8 -6 -5 -6 6 -1 11 2 17
5 13 3 -3 4 -12 1 -19z m-844 -243 l62 -23 5 -320 c3 -176 7 -322 10 -324 26
-22 366 -251 389 -263 28 -14 34 -14 63 1 61 32 355 224 374 245 18 20 19 40
19 308 0 157 2 296 3 308 1 16 17 30 55 49 28 15 64 35 79 45 14 11 29 19 32
19 8 0 8 -729 0 -769 l-7 -32 -43 65 c-55 82 -64 87 -64 39 0 -29 -6 -42 -22
-53 -13 -8 -52 -44 -88 -80 -36 -36 -69 -66 -73 -67 -24 -8 -56 -37 -50 -46 4
-7 0 -8 -11 -4 -13 5 -19 1 -23 -14 -4 -15 -8 -17 -14 -8 -5 9 -18 2 -44 -24
-20 -20 -41 -37 -46 -37 -5 0 -6 -15 -4 -32 3 -21 2 -26 -3 -13 -7 21 -32 32
-32 14 0 -5 -4 -8 -9 -5 -4 3 -7 -6 -5 -19 1 -14 -2 -23 -7 -19 -5 3 -7 10 -4
15 4 5 2 9 -4 9 -5 0 -12 -10 -14 -22 -4 -21 -4 -20 -6 3 -1 27 -37 57 -126
104 -106 57 -332 234 -334 261 -1 7 -10 22 -22 35 -11 13 -18 18 -14 12 4 -8
-1 -14 -12 -15 -33 -2 -38 -4 -56 -14 -10 -6 -20 -19 -22 -30 -2 -10 -4 -23
-6 -29 -9 -43 -17 156 -18 439 -1 300 1 337 14 326 8 -7 43 -23 78 -35z m491
-295 c13 0 266 149 296 175 8 7 25 18 38 24 l22 12 0 -278 0 -278 -156 -104
c-85 -57 -164 -105 -174 -108 -12 -3 -72 28 -172 91 -84 53 -162 103 -173 111
-19 15 -20 30 -23 296 l-3 280 165 -111 c91 -60 172 -110 180 -110z m1331 98
c28 -19 43 -58 22 -58 -4 0 -5 -4 -2 -10 4 -7 -3 -7 -20 0 -15 6 -32 10 -39
10 -18 0 -193 -127 -276 -200 -87 -76 -87 -76 -87 -32 0 33 9 45 83 119 46 45
120 109 165 142 87 66 96 68 154 29z m-2536 -24 c102 -84 241 -216 235 -225
-3 -5 -10 -7 -15 -3 -6 3 -16 -2 -23 -11 -11 -15 -22 -9 -113 62 -128 100
-163 131 -190 169 l-22 31 22 11 c36 18 47 14 106 -34z m2511 -245 l0 -56 -37
-6 c-21 -3 -47 -8 -57 -13 -15 -6 -17 -4 -11 6 5 8 4 11 -3 6 -21 -13 -21 11
0 53 24 48 87 98 100 78 4 -6 8 -37 8 -68z m-2432 -86 c7 -7 26 -20 41 -29 17
-10 27 -23 24 -31 -3 -7 1 -13 8 -13 7 0 10 -3 7 -6 -3 -3 -46 15 -94 40 -49
24 -108 50 -131 57 -40 11 -41 13 -37 48 12 90 7 89 92 14 42 -37 83 -73 90
-80z m632 -163 c-8 -5 -19 -10 -25 -10 -5 0 -3 5 5 10 8 5 20 10 25 10 6 0 3
-5 -5 -10z m1050 -35 c0 -9 -9 -15 -25 -15 -18 0 -23 4 -19 15 4 8 15 15 25
15 10 0 19 -7 19 -15z m-2957 -107 c104 -134 152 -233 152 -312 0 -65 -81
-356 -98 -356 -5 0 -6 7 -3 17 7 16 -16 284 -35 423 -7 50 -25 106 -54 170
-39 86 -67 187 -46 164 5 -5 43 -53 84 -106z m2961 -109 c3 -17 24 -75 47
-127 l41 -95 -22 -56 c-15 -39 -23 -89 -27 -165 l-6 -109 -75 7 c-41 3 -276 6
-522 6 l-447 0 -7 96 c-3 52 -16 124 -28 160 l-21 66 27 53 c14 29 33 76 42
104 l15 51 77 -58 c100 -76 348 -242 362 -242 15 0 173 103 339 222 202 145
194 142 205 87z m-394 -69 c0 -5 -5 -10 -11 -10 -5 0 -7 5 -4 10 3 6 8 10 11
10 2 0 4 -4 4 -10z"/>
<path d="M4529 6726 c-35 -29 -82 -78 -104 -110 -40 -58 -40 -59 -40 -155 0
-90 2 -101 34 -166 24 -48 59 -95 115 -152 l80 -83 34 33 c50 48 123 162 150
236 32 87 34 170 3 229 -22 43 -159 195 -192 212 -12 7 -32 -4 -80 -44z m153
-110 c75 -87 83 -105 74 -171 -7 -43 -9 -45 -42 -45 -19 0 -34 -5 -34 -12 0
-6 -8 -4 -19 6 -17 16 -19 16 -25 -6 -12 -47 -6 -121 12 -141 9 -11 12 -17 5
-14 -8 5 -11 0 -10 -13 1 -11 5 -20 10 -20 5 0 -1 -13 -12 -29 -12 -16 -21
-34 -21 -41 0 -20 -16 -7 -58 46 -50 64 -74 111 -101 199 -32 102 -31 144 3
194 44 63 116 133 134 129 9 -2 47 -39 84 -82z m53 -256 c-4 -12 -9 -19 -12
-17 -3 3 -2 15 2 27 4 12 9 19 12 17 3 -3 2 -15 -2 -27z"/>
<path d="M4641 6454 c0 -11 3 -14 6 -6 3 7 2 16 -1 19 -3 4 -6 -2 -5 -13z"/>
<path d="M1760 6331 c0 -11 -4 -22 -9 -25 -18 -11 -121 -187 -121 -206 0 -18
127 -188 141 -190 3 0 48 45 98 100 60 65 90 104 85 112 -19 32 -121 166 -148
196 -34 37 -46 40 -46 13z m75 -155 l35 -58 -25 -30 c-14 -17 -32 -43 -41 -59
-8 -16 -18 -29 -22 -29 -4 0 -26 22 -50 50 l-43 50 24 32 c14 18 35 53 47 77
25 49 26 49 75 -33z"/>
<path d="M3485 5239 c-4 -6 -5 -12 -2 -15 2 -3 7 2 10 11 7 17 1 20 -8 4z"/>
<path d="M5330 5350 c0 -5 5 -10 11 -10 5 0 7 5 4 10 -3 6 -8 10 -11 10 -2 0
-4 -4 -4 -10z"/>
<path d="M3798 2563 c7 -3 16 -2 19 1 4 3 -2 6 -13 5 -11 0 -14 -3 -6 -6z"/>
<path d="M5101 2424 c0 -11 3 -14 6 -6 3 7 2 16 -1 19 -3 4 -6 -2 -5 -13z"/>
<path d="M4649 1933 c-13 -16 -12 -17 4 -4 16 13 21 21 13 21 -2 0 -10 -8 -17
-17z"/>
<path d="M5052 1763 c-18 -7 -42 -57 -42 -87 0 -16 9 -32 25 -42 23 -15 27
-15 50 0 24 16 45 52 45 77 0 12 -46 59 -57 58 -4 0 -14 -3 -21 -6z"/>
<path d="M4043 1740 c-37 -22 -51 -60 -35 -95 22 -48 100 -38 117 15 7 21 -23
91 -41 97 -5 2 -24 -6 -41 -17z"/>
</g>
</svg>
