<?xml version="1.0" standalone="no"?>
<!DOCTYPE svg PUBLIC "-//W3C//DTD SVG 20010904//EN"
 "http://www.w3.org/TR/2001/REC-SVG-20010904/DTD/svg10.dtd">
<svg version="1.0" xmlns="http://www.w3.org/2000/svg"
 width="800.000000pt" height="800.000000pt" viewBox="0 0 800.000000 800.000000"
 preserveAspectRatio="xMidYMid meet">
<metadata>
Created by potrace 1.14, written by Peter Selinger 2001-2017
</metadata>
<g transform="translate(0.000000,800.000000) scale(0.100000,-0.100000)"
fill="#000000" stroke="none">
<path d="M1745 7855 c-291 -78 -647 -320 -856 -582 -209 -262 -375 -662 -414
-1002 -48 -412 22 -785 196 -1036 77 -112 291 -305 338 -305 16 0 14 8 -23 74
-18 34 -46 95 -61 136 -25 67 -28 89 -29 205 -1 141 5 197 29 266 38 106 100
157 179 145 132 -22 257 -180 306 -388 25 -106 32 -118 70 -118 37 0 45 -13
59 -98 12 -66 11 -75 -4 -92 -15 -16 -17 -31 -12 -80 8 -77 18 -93 66 -120
l38 -22 18 -172 c10 -94 18 -213 19 -263 1 -51 4 -93 9 -93 4 0 7 -17 7 -38 0
-35 -4 -40 -38 -55 -38 -17 -107 -99 -148 -177 -28 -53 -24 -149 10 -229 24
-60 25 -70 16 -123 -13 -70 -2 -117 40 -172 27 -35 30 -47 30 -111 0 -79 9
-97 80 -163 37 -35 120 -82 144 -82 10 0 15 -18 20 -62 10 -101 44 -610 61
-898 8 -146 20 -314 25 -375 14 -160 28 -412 36 -630 5 -152 3 -213 -10 -302
l-17 -113 55 -120 c30 -67 77 -154 104 -194 l50 -73 -77 -7 c-121 -11 -315
-46 -323 -59 -13 -20 -10 -23 45 -40 102 -32 386 -66 1032 -124 183 -17 380
-20 495 -9 30 3 125 13 210 21 300 30 422 34 1140 35 652 0 744 -2 915 -20
285 -29 632 -52 705 -47 36 3 108 10 160 16 52 6 174 21 270 32 627 72 748
101 645 151 -48 24 -471 83 -567 79 -34 -2 -40 9 -54 91 -28 158 -116 270
-239 302 -37 10 -52 23 -114 101 -39 49 -71 95 -71 100 0 6 14 16 30 22 34 13
36 28 15 88 -16 43 -17 42 47 75 20 11 46 33 58 50 l22 31 -49 47 c-26 26 -72
75 -102 110 l-53 63 26 59 c14 32 30 79 35 104 5 26 11 49 13 51 2 3 30 -10
60 -29 80 -48 109 -56 158 -45 24 5 51 14 62 20 13 7 36 7 74 -1 40 -8 63 -9
87 0 32 10 45 19 108 77 20 19 39 25 82 26 47 2 62 8 94 35 21 18 60 47 86 65
75 50 97 105 105 263 l7 127 32 11 c48 16 63 37 73 97 5 30 12 67 16 82 5 22
1 34 -17 53 l-23 24 32 98 c36 110 72 300 72 377 0 35 6 60 18 76 29 38 62
113 62 141 0 56 -87 153 -212 238 -75 51 -94 59 -140 62 l-53 3 -7 45 c-7 41
-49 191 -84 298 l-14 43 40 38 c23 22 40 47 40 60 0 29 -25 77 -67 125 -18 22
-29 44 -25 48 5 5 46 21 92 36 97 31 117 52 127 129 7 66 -10 94 -71 122 -28
12 -50 31 -60 50 -18 34 -43 51 -78 51 -19 1 -29 14 -58 77 -67 147 -214 303
-367 389 -78 44 -83 48 -99 97 -24 75 -53 123 -81 136 -54 25 -187 3 -273 -45
l-44 -25 -32 38 c-18 21 -47 63 -65 93 -17 30 -45 74 -61 97 -31 46 -32 45 17
109 110 144 240 508 248 693 4 100 -56 108 -208 26 -57 -30 -106 -55 -109 -55
-3 0 -7 53 -7 118 -2 153 -6 171 -49 199 -70 44 -71 46 -85 118 -25 126 -78
252 -156 367 -57 83 -200 229 -292 299 -76 58 -259 157 -370 200 -56 22 -67
33 -67 66 0 17 -21 35 -94 78 -52 31 -115 63 -140 70 -56 17 -77 11 -199 -58
-83 -47 -117 -82 -117 -120 0 -7 -24 -21 -52 -32 -429 -153 -768 -512 -847
-896 -10 -49 -16 -59 -42 -69 -16 -7 -41 -26 -54 -42 -24 -28 -25 -35 -25
-164 0 -90 -4 -134 -11 -134 -6 0 -48 20 -92 44 -109 59 -164 73 -205 52 -54
-28 -53 -59 5 -211 19 -49 50 -144 69 -210 41 -142 115 -299 178 -375 26 -30
46 -58 46 -62 0 -4 -35 -14 -77 -23 -136 -29 -156 -36 -184 -64 -15 -15 -35
-51 -45 -79 -17 -48 -25 -56 -86 -93 -75 -44 -176 -133 -197 -173 -8 -14 -22
-26 -32 -26 -31 0 -87 -74 -171 -225 -12 -21 -28 -33 -60 -41 -90 -23 -114
-56 -106 -147 6 -75 42 -139 132 -234 87 -92 86 -87 15 -144 l-38 -30 -36 40
c-50 55 -107 75 -195 69 -38 -3 -70 -2 -70 2 0 23 -42 507 -50 569 -8 67 -6
77 12 102 12 16 23 49 26 78 4 43 1 53 -21 75 -22 22 -25 35 -31 133 l-7 108
33 20 c22 13 35 31 41 55 10 44 10 41 -2 125 -5 38 -7 73 -5 77 6 9 78 -19 82
-33 2 -5 7 -7 11 -4 13 7 68 -57 98 -115 26 -50 28 -64 28 -160 -1 -71 -6
-119 -17 -147 l-16 -43 48 26 c72 39 177 141 245 235 33 46 64 87 70 91 5 4 7
8 2 8 -4 0 9 31 28 70 56 112 91 207 124 340 40 166 54 297 53 520 -1 396 -71
687 -213 891 -50 70 -54 69 -89 -35 -33 -100 -99 -205 -158 -253 -29 -24 -57
-41 -63 -38 -5 4 -9 2 -9 -3 0 -19 -85 -44 -151 -45 -50 0 -79 6 -122 26 -59
27 -71 41 -82 100 -10 51 -24 56 -54 20 -14 -17 -34 -29 -43 -28 -47 8 -138
108 -180 201 -20 43 -23 64 -22 169 0 104 4 131 27 198 15 44 50 114 77 156
60 94 64 121 18 120 -18 0 -56 -6 -83 -14z m-145 -169 c0 -2 -19 -16 -42 -31
-119 -79 -336 -291 -473 -464 -216 -273 -362 -623 -410 -986 -14 -102 -16
-171 -12 -330 6 -207 18 -280 65 -401 11 -27 23 -72 27 -100 l7 -49 -23 35
c-45 71 -101 204 -125 297 -68 271 -50 638 48 928 127 379 308 655 567 865
149 120 371 262 371 236z m-10 -151 c-22 -81 -24 -153 -9 -242 l11 -63 -50
-62 c-125 -159 -204 -331 -250 -549 -23 -104 -46 -285 -39 -296 3 -5 -18 -19
-46 -33 -82 -39 -222 -186 -275 -288 -60 -114 -151 -370 -152 -427 -1 -42 -19
10 -36 105 -23 128 -24 434 0 578 66 411 264 790 575 1099 88 88 281 256 287
251 1 -2 -6 -34 -16 -73z m2990 -368 l0 -233 -45 -22 c-25 -12 -66 -41 -91
-64 l-46 -42 5 174 c6 207 18 306 36 296 4 -3 19 15 32 40 25 51 62 84 90 84
18 0 19 -12 19 -233z m164 -12 c59 -75 60 -82 64 -224 l4 -133 -64 53 c-35 30
-74 61 -88 70 l-25 16 -3 194 -3 194 42 -65 c23 -35 55 -83 73 -105z m-3062
-69 c27 -42 116 -132 170 -171 26 -20 26 -20 11 -70 -8 -28 -17 -115 -20 -197
l-5 -148 -29 21 c-53 37 -47 43 -219 -242 -30 -51 -67 -104 -82 -120 -16 -15
-28 -33 -28 -40 0 -7 41 -82 91 -166 51 -85 90 -155 88 -158 -2 -2 -33 -15
-69 -28 -36 -14 -92 -35 -126 -48 l-61 -23 -61 65 c-41 44 -83 77 -129 100
-61 31 -74 34 -155 34 -48 -1 -88 3 -88 8 0 41 171 267 202 267 6 0 18 8 27
18 21 25 46 34 106 41 48 6 50 7 48 36 -6 95 -3 240 7 300 25 160 128 400 227
533 41 55 49 61 58 47 5 -10 22 -36 37 -59z m958 -46 c-14 -79 -73 -249 -112
-321 -38 -73 -114 -158 -176 -198 -54 -34 -165 -75 -244 -90 l-50 -9 -16 37
c-10 24 -17 81 -20 174 -4 108 -8 140 -19 144 -28 11 -34 -15 -34 -138 -1 -99
4 -138 21 -192 12 -39 28 -71 37 -74 9 -4 53 -1 97 6 45 8 91 14 104 15 12 0
22 4 22 7 0 9 46 22 84 25 15 1 33 7 39 13 8 8 16 6 29 -6 10 -9 18 -11 18 -5
0 15 -37 35 -44 23 -3 -5 -16 -11 -28 -14 -22 -6 -22 -6 2 13 14 11 33 17 43
14 9 -3 17 -1 17 5 0 14 72 80 88 81 6 0 11 3 10 8 -4 10 63 92 75 92 5 0 3
-8 -4 -17 -8 -9 -9 -14 -3 -10 13 8 27 -19 18 -34 -3 -5 -17 -7 -30 -5 -21 4
-23 2 -14 -9 8 -10 8 -15 -1 -21 -7 -4 -9 -3 -6 3 3 5 0 10 -8 10 -11 0 -12
-4 -4 -14 9 -10 8 -13 -1 -13 -9 0 -7 -7 4 -25 13 -19 14 -30 6 -45 -6 -12 -8
-31 -4 -43 3 -12 3 -19 0 -16 -12 12 -76 -59 -70 -76 5 -11 0 -18 -15 -22 -14
-3 -21 -13 -21 -28 0 -12 -7 -28 -15 -35 -10 -9 -15 -9 -15 -1 0 28 -18 7 -26
-32 -8 -34 -7 -46 4 -57 12 -11 11 -15 -7 -24 -15 -9 -18 -15 -10 -23 7 -7 3
-16 -15 -30 -16 -13 -26 -32 -28 -50 -1 -19 -7 -30 -17 -29 -8 1 -18 -13 -23
-33 -7 -25 -12 -31 -21 -22 -6 6 -20 11 -30 11 -16 0 -17 -3 -7 -15 10 -12 10
-18 0 -30 -7 -8 -18 -15 -24 -15 -18 0 -57 -30 -51 -40 3 -6 16 -5 30 0 16 6
25 6 25 0 0 -6 -9 -10 -20 -10 -11 0 -20 -5 -20 -11 0 -5 -14 -15 -31 -21 -36
-12 -23 -28 24 -28 17 0 27 -5 27 -15 0 -17 0 -17 -57 -6 -24 5 -40 4 -37 0 3
-5 1 -9 -5 -9 -5 0 -12 6 -14 13 -3 6 -6 2 -6 -11 -1 -15 3 -21 11 -16 7 4 8
3 4 -4 -4 -7 -2 -12 5 -12 7 0 9 -3 6 -7 -4 -3 -15 1 -24 9 -10 9 -31 23 -48
32 -16 10 -22 15 -13 12 28 -8 30 10 3 22 -14 6 -24 8 -22 4 3 -10 -14 -13
-35 -6 -10 3 -15 11 -11 20 5 13 7 12 17 -1 13 -18 12 -19 17 51 1 17 4 22 9
13 5 -7 7 -20 5 -30 -2 -10 0 -21 4 -24 5 -2 7 9 6 25 -2 19 2 30 10 30 8 0
11 10 7 28 -4 24 -3 25 9 11 8 -10 25 -20 39 -23 l25 -7 -22 17 c-23 16 -33
41 -12 28 8 -4 9 1 4 17 -4 13 -8 26 -8 29 -3 11 70 109 76 103 4 -3 7 -1 7 5
0 6 8 9 18 6 14 -5 14 -4 3 4 -10 7 -12 15 -5 24 5 8 1 5 -8 -5 -10 -11 -18
-14 -18 -8 0 6 -12 29 -26 51 -15 22 -23 44 -18 51 4 7 3 10 -3 6 -21 -13
-113 154 -138 250 -21 77 -21 240 0 328 23 103 22 103 94 56 70 -45 151 -66
221 -58 62 8 151 38 174 59 11 10 26 18 33 18 7 0 13 5 13 10 0 6 7 10 17 10
9 0 14 2 12 5 -3 2 18 29 45 58 28 29 62 77 75 105 14 29 26 50 28 48 2 -2 -1
-32 -7 -66z m87 -158 c8 -41 12 -76 9 -79 -3 -4 -6 5 -6 18 0 19 -2 21 -10 9
-8 -11 -10 -5 -8 24 2 25 -1 40 -10 42 -7 1 -8 0 -2 -3 5 -2 10 -12 10 -20 0
-13 -2 -13 -17 -2 -15 13 -15 12 -4 -9 9 -16 9 -27 1 -40 -10 -15 -10 -14 -5
5 3 12 2 24 -3 27 -14 8 -22 -57 -8 -67 7 -6 5 -7 -5 -4 -19 6 -44 -37 -33
-55 5 -7 2 -8 -6 -3 -10 6 -12 4 -7 -9 5 -11 3 -15 -5 -10 -8 5 -9 2 -5 -9 3
-10 2 -17 -4 -17 -6 0 -8 -4 -5 -8 3 -5 -1 -9 -9 -9 -10 0 -7 14 12 51 35 70
71 178 79 239 6 45 8 48 16 26 5 -13 16 -57 25 -97z m1957 -100 c84 -78 140
-149 178 -227 35 -71 39 -85 33 -130 -7 -57 -59 -214 -76 -229 -9 -8 -10 -7
-4 3 5 9 3 12 -6 9 -8 -3 -14 -9 -14 -14 -1 -21 -18 -34 -42 -32 -16 2 -28 -3
-30 -12 -4 -13 -3 -13 6 0 7 9 11 10 11 3 0 -6 -6 -15 -12 -20 -13 -8 -18 -9
-38 -12 -5 0 -10 -8 -10 -17 0 -8 -5 -12 -10 -9 -6 4 7 27 29 53 48 58 94 148
116 226 19 65 15 126 -10 180 -20 42 -99 135 -158 187 -55 48 -52 48 -150 -41
-102 -93 -134 -173 -116 -288 14 -92 60 -175 146 -263 l74 -77 -4 -58 c-2 -45
-5 -53 -11 -36 -5 12 -13 22 -19 22 -6 0 -8 3 -5 6 3 3 -17 26 -44 52 -62 58
-129 151 -164 226 -26 57 -40 74 -29 34 6 -22 6 -22 -9 -4 -19 23 -56 119 -56
143 0 9 19 46 42 82 23 36 47 75 53 86 21 34 158 177 199 206 l38 29 26 -20
c14 -11 44 -37 66 -58z m-1937 -39 c-3 -10 -5 -4 -5 12 0 17 2 24 5 18 2 -7 2
-21 0 -30z m1923 -115 c67 -80 94 -123 86 -141 -2 -7 -5 -4 -5 6 -1 10 -9 17
-20 17 -10 0 -30 10 -45 21 -21 16 -30 19 -39 10 -7 -7 -16 -92 -23 -214 -7
-111 -13 -204 -13 -206 -1 -2 -22 23 -47 55 -53 67 -86 135 -109 222 -22 85
-19 123 11 168 34 51 115 134 131 134 6 0 40 -33 73 -72z m-417 -29 c-7 -26
-30 -35 -118 -43 -72 -8 -296 -40 -352 -52 -26 -5 -31 -3 -30 12 2 14 -4 18
-18 16 -16 -2 -17 -1 -5 6 21 13 122 31 323 57 221 29 206 29 200 4z m877 0
c47 -5 110 -15 141 -21 54 -11 55 -12 38 -29 -18 -18 -25 -18 -166 -3 -81 9
-158 13 -171 11 -24 -5 -48 24 -39 47 6 14 43 13 197 -5z m-2560 -58 c0 -5 -7
-11 -15 -15 -15 -5 -20 5 -8 17 9 10 23 9 23 -2z m1620 -63 c0 -18 -4 -28 -8
-23 -4 6 -16 11 -27 10 -11 0 -31 7 -45 15 l-24 15 34 6 c68 12 70 11 70 -23z
m948 16 c28 -4 52 -10 52 -15 0 -7 -27 -5 -78 6 -42 10 -101 -38 -102 -82 0
-36 21 -71 49 -82 14 -5 68 -15 120 -21 98 -11 132 -22 112 -34 -6 -4 -11 -2
-11 3 0 6 -7 11 -15 11 -8 0 -15 -5 -15 -11 0 -7 -10 -9 -25 -7 -14 3 -28 1
-31 -3 -3 -5 -11 -9 -17 -9 -9 0 -9 2 -1 8 7 4 -46 8 -118 9 -71 1 -132 4
-135 6 -2 3 5 26 16 52 11 26 26 76 32 111 l11 64 52 0 c28 0 75 -3 104 -6z
m-1069 -9 c-3 -2 -16 -7 -30 -9 -13 -2 -24 -5 -24 -6 0 -1 -24 -3 -53 -5 -29
-2 -58 -7 -65 -11 -7 -4 -9 -3 -4 2 5 5 32 14 60 20 54 12 124 18 116 9z
m1041 -56 c0 -10 -4 -19 -10 -19 -5 0 -10 5 -10 11 0 5 -4 7 -10 4 -14 -9 -13
8 2 23 15 15 28 6 28 -19z m-1035 11 c-3 -5 -11 -10 -16 -10 -6 0 -7 5 -4 10
3 6 11 10 16 10 6 0 7 -4 4 -10z m-2237 -43 c36 -38 135 -207 122 -207 -12 0
-9 -22 5 -32 6 -5 5 -8 -3 -8 -7 0 -10 -4 -7 -10 3 -5 4 -10 2 -10 -2 0 -35
42 -72 93 -63 86 -100 126 -117 127 -4 0 -9 -9 -13 -20 -12 -38 -98 -160 -108
-153 -6 3 -7 1 -3 -5 4 -6 0 -25 -9 -42 -14 -28 -15 -34 -2 -53 12 -19 12 -24
1 -35 -7 -6 -15 -12 -18 -12 -6 0 -46 65 -46 76 0 5 38 67 85 139 47 71 85
134 85 140 0 6 7 20 15 32 19 27 43 21 83 -20z m1745 -60 c-6 -42 -23 -50 -23
-12 0 22 20 58 27 51 1 -1 0 -19 -4 -39z m555 -15 c-10 -14 -10 -15 2 -4 17
15 30 16 30 2 0 -6 11 -21 25 -34 l25 -24 -32 -6 c-92 -16 -255 -26 -278 -17
-14 5 -19 10 -12 10 6 1 12 6 12 12 0 5 -5 7 -11 3 -6 -3 -30 -8 -53 -9 -69
-5 -11 11 125 34 89 15 129 27 143 41 23 22 43 16 24 -8z m-1361 -44 c-3 -8
-6 -5 -6 6 -1 11 2 17 5 13 3 -3 4 -12 1 -19z m-273 -37 c-2 -3 -12 3 -22 13
-16 17 -16 18 5 5 12 -7 20 -15 17 -18z m-34 4 c0 -12 -19 -12 -23 0 -4 9 -1
12 9 8 7 -3 14 -7 14 -8z m-640 -67 c37 -61 37 -62 18 -82 -11 -12 -29 -38
-41 -59 -11 -20 -24 -36 -27 -35 -3 2 -25 25 -49 51 l-44 48 25 27 c14 15 36
48 48 74 13 27 26 46 28 43 3 -2 22 -32 42 -67z m1963 65 c-7 -2 -19 -2 -25 0
-7 3 -2 5 12 5 14 0 19 -2 13 -5z m103 -21 c-10 -2 -26 3 -35 12 -15 15 -13
16 19 4 26 -9 30 -13 16 -16z m-1489 -34 c-3 -8 -6 -5 -6 6 -1 11 2 17 5 13 3
-3 4 -12 1 -19z m703 -7 c3 -3 19 -13 35 -21 43 -21 282 -179 295 -195 9 -10
7 -29 -5 -76 -8 -35 -17 -64 -19 -66 -5 -6 -366 356 -366 367 0 10 50 3 60 -9z
m3020 12 c0 -5 -48 -55 -107 -113 -60 -58 -133 -134 -163 -169 l-54 -64 -18
39 c-30 65 -22 82 67 146 44 31 91 63 105 70 14 7 33 19 43 27 22 18 109 70
120 70 4 1 7 -2 7 -6z m-3363 -35 c-3 -8 -6 -5 -6 6 -1 11 2 17 5 13 3 -3 4
-12 1 -19z m1997 -24 c3 -8 2 -12 -4 -9 -6 3 -10 10 -10 16 0 14 7 11 14 -7z
m-2237 -46 c-2 -13 -4 -5 -4 17 -1 22 1 32 4 23 2 -10 2 -28 0 -40z m1604 -57
c79 -43 173 -94 208 -113 74 -39 96 -77 59 -102 -26 -19 -76 -4 -255 75 -155
69 -191 78 -293 79 l-75 1 60 54 c33 29 63 51 67 49 5 -3 8 -1 8 4 0 11 38 30
61 31 9 1 81 -34 160 -78z m1191 37 c25 -24 60 -55 79 -70 l34 -27 -50 -1
c-86 -1 -174 -26 -355 -100 -217 -89 -227 -91 -236 -55 -4 16 -3 35 3 44 5 9
76 50 159 92 82 42 185 94 229 117 44 23 83 42 86 42 3 0 26 -19 51 -42z
m-3652 -38 c0 -6 -7 -13 -15 -16 -11 -5 -12 -11 -4 -27 9 -20 9 -21 -4 -4 -17
21 -11 57 9 57 8 0 14 -5 14 -10z m225 -10 c-3 -5 0 -10 7 -10 10 0 10 -2 -1
-9 -8 -5 -10 -14 -6 -21 5 -8 4 -11 -3 -6 -6 3 -13 2 -17 -4 -4 -6 -11 -7 -17
-4 -7 4 -8 2 -4 -5 4 -6 12 -9 17 -6 5 4 9 0 9 -7 0 -23 -81 -110 -97 -104 -8
3 -11 1 -8 -4 3 -6 1 -10 -5 -10 -6 0 -8 -6 -4 -12 5 -10 4 -10 -5 -2 -7 6
-13 20 -14 32 0 11 -5 19 -9 16 -8 -5 -68 73 -68 89 0 5 7 6 16 3 13 -5 15 -2
11 16 -5 17 4 11 32 -22 44 -51 40 -52 119 33 42 45 61 59 47 37z m3727 -90
c21 -41 54 -127 74 -190 20 -63 47 -145 60 -182 13 -38 21 -68 18 -68 -12 0
-46 46 -66 90 -34 72 -33 28 2 -76 17 -53 29 -105 27 -115 -3 -11 -2 -19 3
-19 8 0 13 -25 25 -110 l5 -45 -15 40 c-8 22 -13 45 -10 52 2 7 -1 18 -8 25
-7 7 -18 25 -24 41 -39 87 -29 -49 13 -175 17 -53 24 -93 22 -130 l-3 -53 -35
88 c-19 48 -51 109 -71 136 -36 48 -36 49 -27 107 17 101 3 291 -36 486 -20
97 -36 182 -36 189 0 30 48 -23 82 -91z m-1972 34 c-16 -50 -47 -253 -61 -399
-12 -137 -14 -142 -61 -239 -27 -54 -51 -96 -54 -94 -2 3 2 37 11 77 20 97 20
112 -3 85 -9 -12 -27 -24 -39 -27 -19 -4 -21 -1 -18 25 2 16 21 53 43 81 45
61 47 65 68 166 20 97 46 186 85 284 30 74 50 102 29 41z m2360 -114 c-26 -78
-57 -146 -86 -191 -24 -38 -47 -69 -49 -69 -3 0 5 24 16 52 15 39 20 70 17
116 -3 59 -1 66 30 103 18 22 38 37 43 33 5 -3 8 -2 7 3 -3 10 53 85 59 79 3
-2 -14 -59 -37 -126z m-3970 116 c0 -2 -8 -10 -17 -17 -16 -13 -17 -12 -4 4
13 16 21 21 21 13z m1558 -15 c3 -8 0 -11 -7 -7 -7 4 -9 2 -5 -8 3 -8 -4 -47
-16 -88 -12 -40 -30 -113 -41 -162 -12 -58 -33 -115 -61 -167 -23 -43 -43 -77
-45 -76 -1 2 16 61 38 132 21 72 48 168 60 215 11 47 27 94 34 106 7 11 11 33
8 48 -5 23 -3 27 12 24 10 -1 20 -9 23 -17z m-307 -168 c-1 -18 12 -74 30
-124 17 -49 29 -93 26 -95 -3 -3 -25 21 -48 53 -29 38 -62 106 -96 196 -29 76
-53 140 -53 142 0 2 32 -29 72 -68 62 -62 71 -76 69 -104z m1266 6 l24 -26
-58 -6 c-31 -3 -59 -4 -62 -2 -2 2 2 18 9 35 7 18 10 50 7 77 l-5 46 30 -49
c17 -27 41 -61 55 -75z m169 36 l-10 -65 -49 0 -49 0 59 65 c32 35 58 64 58
65 0 0 -4 -29 -9 -65z m-908 43 c24 -3 11 -31 -43 -91 -30 -34 -53 -63 -51
-64 1 -2 23 1 48 5 l45 9 27 -42 c32 -52 97 -83 204 -99 65 -9 88 -7 184 13
101 21 111 21 134 6 13 -8 24 -22 24 -29 0 -11 -7 -12 -33 -4 -28 9 -42 6 -90
-16 -31 -14 -57 -28 -57 -31 0 -2 6 -2 14 1 9 4 6 -10 -11 -43 -19 -38 -24
-59 -20 -101 l4 -53 -56 -29 c-82 -44 -164 -109 -208 -164 -21 -27 -47 -60
-58 -73 l-21 -25 7 68 c13 141 58 209 224 340 61 49 77 65 70 72 -8 9 -163
-82 -212 -125 -51 -42 -72 -53 -36 -18 14 14 14 18 2 26 -8 4 -14 13 -14 20 0
6 -27 21 -61 33 -61 22 -110 52 -133 80 -35 42 -32 126 11 273 l20 71 37 -4
c20 -3 42 -5 49 -6z m1656 -5 c3 -10 10 -47 17 -83 7 -35 18 -76 26 -90 19
-37 17 -114 -4 -132 -10 -9 -53 -34 -96 -58 -42 -23 -75 -46 -71 -51 3 -5 0
-9 -5 -9 -6 0 -11 -9 -11 -19 0 -17 -4 -18 -40 -9 -22 6 -40 15 -40 20 0 6 -7
8 -15 4 -8 -3 -14 0 -12 6 1 7 -2 12 -8 13 -5 0 -29 11 -53 23 -23 13 -48 20
-54 16 -7 -5 -8 -3 -3 6 5 8 3 11 -6 8 -8 -3 -33 1 -56 7 -24 7 -43 10 -43 6
0 -3 33 -26 74 -50 175 -103 233 -174 256 -313 18 -104 12 -112 -38 -47 -55
73 -152 154 -229 192 l-63 31 0 60 c0 102 -56 172 -144 178 -47 3 -55 15 -19
29 21 8 50 7 122 -7 81 -15 104 -15 175 -5 105 16 156 39 196 90 33 40 35 41
96 41 l63 0 -84 80 -84 80 74 0 c62 0 74 -3 79 -17z m-3517 -12 c1 -14 -3 -18
-13 -14 -11 4 -12 9 -3 19 15 18 14 18 16 -5z m223 -31 c0 -5 -4 -10 -10 -10
-5 0 -10 5 -10 10 0 6 5 10 10 10 6 0 10 -4 10 -10z m1896 -136 c37 -3 95 -4
130 -1 37 3 64 1 64 -5 0 -19 -95 -51 -155 -52 -89 -1 -132 11 -176 51 -44 40
-49 60 -16 72 18 7 28 3 55 -24 28 -29 42 -34 98 -41z m-2208 45 c12 -5 22
-13 22 -18 0 -5 10 -7 23 -4 13 3 17 1 11 -4 -6 -4 -11 -27 -10 -51 l1 -42
-85 0 c-47 0 -103 -3 -125 -7 -22 -3 -37 -2 -33 2 4 4 0 21 -8 37 -35 67 -24
79 86 97 54 8 73 7 118 -10z m3367 1 c-7 -21 10 -29 18 -7 2 6 8 9 12 5 5 -5
-10 -26 -33 -47 -46 -44 -123 -67 -189 -56 -59 10 -133 36 -133 46 0 5 46 9
103 9 106 0 165 16 196 53 19 23 34 21 26 -3z m-3092 3 c-7 -2 -21 -2 -30 0
-10 3 -4 5 12 5 17 0 24 -2 18 -5z m2523 -49 c18 -9 50 -38 69 -65 20 -28 40
-47 45 -44 14 8 24 -15 11 -28 -21 -21 -11 -26 43 -20 45 5 57 2 74 -15 29
-29 38 -70 21 -88 -8 -7 -36 -18 -62 -23 -25 -4 -61 -20 -79 -33 -52 -39 -141
-68 -211 -68 -59 0 -71 4 -152 47 -64 33 -84 42 -122 52 -41 11 -43 13 -43 51
0 58 29 84 86 77 44 -5 44 -4 64 40 22 51 63 102 94 120 30 18 122 16 162 -3z
m-2748 -166 c11 -13 25 -35 31 -50 l11 -28 -60 0 c-57 0 -197 -16 -233 -26
-16 -5 -18 0 -15 48 3 51 5 54 38 65 19 7 74 12 121 12 76 1 88 -1 107 -21z
m3476 -113 c17 -25 16 -25 -3 -13 -22 13 -36 38 -22 38 5 0 16 -11 25 -25z
m-1827 -141 c-13 -38 -27 -78 -31 -89 -6 -16 -3 -15 16 6 12 14 33 39 44 55
30 41 36 28 18 -40 -8 -32 -14 -68 -12 -79 3 -19 7 -15 25 19 29 54 58 62 78
24 8 -16 15 -42 15 -57 1 -25 2 -26 14 -10 7 9 18 17 23 17 11 0 27 -155 18
-170 -3 -4 -20 -17 -39 -28 l-34 -20 -7 54 c-3 30 -10 54 -15 54 -17 0 -50
-54 -56 -90 -4 -27 -13 -41 -30 -49 -14 -6 -27 -18 -30 -26 -14 -35 -24 -10
-24 61 0 68 -2 75 -16 63 -8 -7 -25 -31 -36 -53 -25 -49 -20 -122 11 -184 69
-135 305 -174 476 -79 25 14 45 23 45 19 0 -4 -14 -56 -31 -117 -40 -141 -51
-355 -25 -500 17 -98 68 -278 111 -390 14 -38 22 -65 17 -60 -150 164 -269
320 -317 415 -36 72 -80 203 -90 265 -13 76 -26 115 -39 115 -17 0 -20 -8 -36
-98 -8 -42 -17 -68 -21 -60 -18 32 -82 215 -99 284 -40 154 -49 334 -30 559 9
108 10 112 64 210 31 55 57 104 58 110 1 5 3 -6 5 -26 2 -21 -6 -64 -20 -105z
m723 -15 c0 -6 -12 -30 -26 -55 -14 -24 -22 -44 -17 -44 4 0 30 18 57 39 l50
40 23 -25 c13 -14 23 -37 23 -52 0 -20 3 -23 12 -14 18 18 36 15 71 -10 18
-13 33 -22 35 -20 1 1 11 2 23 2 20 0 20 -1 -6 -47 -40 -70 -65 -94 -88 -87
-11 4 -23 1 -28 -7 -6 -9 -9 -1 -9 24 0 20 -4 37 -9 37 -5 0 -31 -27 -58 -60
-26 -33 -51 -60 -56 -60 -4 0 2 18 13 40 11 23 25 52 30 66 9 22 8 24 -9 14
-11 -5 -46 -40 -80 -77 -33 -37 -63 -65 -66 -62 -3 3 1 27 9 52 8 26 10 47 6
47 -11 0 -67 -70 -115 -143 -21 -31 -40 -56 -41 -54 -2 2 5 23 17 46 11 24 18
45 16 47 -3 3 -35 -18 -73 -47 -38 -28 -89 -61 -114 -71 -61 -27 -201 -35
-255 -15 -22 9 -32 16 -22 16 32 2 138 41 170 64 40 27 55 44 125 132 80 101
159 181 222 224 84 57 170 88 170 60z m787 -37 c55 -35 104 -85 190 -192 34
-41 76 -91 95 -111 44 -47 143 -112 198 -131 l45 -15 -45 -13 c-66 -18 -195
-8 -250 20 -25 12 -78 56 -117 98 -40 41 -76 73 -79 70 -3 -3 9 -34 27 -69 39
-78 20 -65 -61 41 -95 124 -129 144 -89 51 12 -29 19 -54 16 -57 -3 -3 -36 24
-72 60 -37 36 -71 66 -76 66 -12 0 -12 -1 7 -46 l15 -39 -28 35 c-15 19 -40
48 -55 65 -26 29 -27 29 -28 7 0 -12 11 -45 25 -73 l26 -50 -28 7 c-66 16
-160 96 -177 152 -6 17 -3 22 11 22 11 0 25 -6 32 -12 11 -10 14 -10 18 0 3 6
11 12 19 12 8 0 14 5 14 11 0 6 9 9 20 6 16 -4 20 0 20 19 0 29 15 31 32 4 20
-31 31 -24 25 15 -3 20 -2 33 3 30 4 -3 10 -1 12 5 2 6 20 -4 41 -21 21 -17
40 -29 43 -26 3 3 -4 24 -16 47 -12 23 -16 39 -10 35 6 -4 16 -2 23 3 34 28
107 17 174 -26z m574 -77 c23 -55 51 -144 62 -198 19 -89 19 -106 8 -175 -18
-105 -65 -313 -91 -397 -18 -59 -117 -265 -138 -287 -4 -4 -8 59 -8 140 -1 98
-7 173 -19 227 -27 126 -27 128 21 136 82 15 155 59 197 119 19 28 23 104 7
161 -10 36 -65 98 -76 86 -4 -3 -9 -26 -11 -52 -6 -49 -15 -54 -54 -27 -103
68 -107 73 -118 123 -13 60 -14 99 -3 99 5 0 13 -10 19 -22 9 -20 10 -20 32
15 12 21 26 35 30 33 7 -5 41 29 41 41 0 17 45 92 51 86 4 -5 27 -53 50 -108z
m-2452 -164 c1 -46 8 -131 17 -190 19 -131 90 -489 104 -525 21 -55 17 -59
-126 -125 -103 -48 -141 -61 -161 -56 -49 12 -207 96 -284 150 -61 43 -76 59
-76 79 0 24 1 24 76 -27 102 -68 258 -147 292 -147 15 0 59 15 96 34 37 19 85
41 106 49 20 9 37 23 37 31 0 8 -11 56 -24 108 -36 135 -53 232 -76 417 -23
190 -26 296 -7 315 18 20 25 -11 26 -113z m-1278 70 c-11 -7 -11 -10 2 -17 10
-6 12 -15 7 -30 -7 -19 -19 -22 -111 -28 -108 -7 -124 -2 -115 37 4 15 -1 18
-22 15 -22 -2 -28 -9 -32 -38 -5 -33 -6 -34 -13 -10 -15 53 -12 54 135 70 106
11 166 11 149 1z m1182 -107 c22 -200 78 -553 102 -645 6 -23 3 -27 -20 -33
-15 -4 -45 -18 -68 -33 -22 -14 -51 -25 -63 -25 -26 0 -163 50 -184 67 -8 7
-28 19 -45 28 -16 8 -58 35 -91 60 -52 38 -61 49 -57 70 5 24 6 24 81 -32 78
-58 207 -129 274 -150 30 -10 43 -9 73 3 l37 16 -5 67 c-2 38 -19 149 -36 248
-31 178 -50 387 -37 420 13 35 31 7 39 -61z m3094 8 c-97 -133 -192 -374 -228
-580 -22 -131 -23 -144 -8 -195 17 -61 119 -117 177 -96 24 8 25 7 10 -4 -20
-16 -14 -28 10 -21 10 2 1 -3 -18 -12 -33 -15 -38 -15 -85 1 -27 10 -74 31
-104 48 l-54 30 8 116 c11 195 39 322 102 476 56 134 175 297 204 280 9 -6 11
-3 6 8 -4 11 -2 14 8 11 11 -5 4 -20 -28 -62z m-133 -9 c-126 -189 -208 -453
-221 -712 -6 -124 -5 -128 17 -149 27 -25 142 -86 200 -107 42 -15 42 -15 138
34 54 27 121 62 149 79 94 56 464 220 417 185 -6 -4 -10 -16 -8 -26 1 -9 -1
-15 -6 -12 -5 3 -10 1 -12 -4 -1 -5 -61 -38 -133 -73 -71 -35 -177 -92 -235
-125 -134 -77 -195 -108 -245 -123 -39 -11 -44 -10 -158 44 -65 30 -132 65
-149 77 l-31 22 6 161 c7 178 24 284 68 424 39 121 78 207 133 292 35 53 51
69 73 73 15 2 31 5 35 6 4 0 -13 -29 -38 -66z m-3104 29 c0 -24 33 -253 51
-355 12 -65 18 -121 15 -124 -3 -4 -6 -1 -6 6 0 9 -5 9 -20 1 -11 -6 -20 -7
-20 -2 0 5 -10 8 -22 7 -13 -1 -29 7 -37 17 -8 12 -21 18 -32 15 -30 -8 -104
90 -133 177 -16 46 -16 50 4 91 22 45 67 91 140 142 47 33 60 39 60 25z m1471
-15 c-10 -9 -11 -8 -5 6 3 10 9 15 12 12 3 -3 0 -11 -7 -18z m159 13 c0 -5 -4
-10 -10 -10 -5 0 -10 5 -10 10 0 6 5 10 10 10 6 0 10 -4 10 -10z m210 -120
c120 -37 183 -59 193 -69 9 -9 -83 -61 -107 -61 -9 0 -50 18 -90 40 -88 48
-139 59 -234 49 -56 -6 -95 -19 -167 -53 -52 -26 -97 -46 -100 -46 -11 0 -85
53 -81 57 2 3 40 17 83 33 43 15 105 38 138 50 126 47 214 47 365 0z m1515
-10 c49 -24 94 -58 151 -115 67 -67 89 -97 127 -176 26 -53 47 -101 47 -108 0
-6 -24 -23 -54 -38 l-55 -27 -40 19 c-29 13 -41 24 -41 39 0 47 -12 50 -93 22
-89 -31 -137 -32 -234 -7 -40 11 -73 16 -73 13 0 -3 -2 -3 -5 0 -8 8 43 153
85 244 35 77 99 176 110 171 3 -1 37 -18 75 -37z m-1646 -145 c46 -79 98 -227
116 -332 33 -188 13 -489 -45 -678 -23 -74 -143 -382 -165 -425 l-13 -25 -6
25 c-3 14 -8 97 -11 185 -8 197 -40 583 -49 592 -18 18 -21 -34 -18 -320 l2
-312 -55 85 c-69 106 -177 315 -210 409 -32 87 -55 205 -55 276 0 59 -15 82
-26 39 -11 -42 4 -322 20 -389 8 -33 13 -61 12 -63 -12 -11 -95 218 -122 335
-25 105 -25 339 -1 438 28 113 47 157 63 144 25 -21 43 -103 37 -169 -5 -46
-3 -61 5 -56 7 4 12 13 12 19 0 7 14 32 31 57 l31 45 -7 -35 c-16 -88 -17
-100 -7 -100 5 0 15 15 21 33 18 52 79 133 122 162 l40 26 -16 -32 c-68 -131
-121 -351 -110 -459 10 -97 21 -102 28 -13 9 116 68 338 113 423 33 63 119
170 137 170 3 0 4 -17 1 -37 l-5 -38 23 43 c32 62 61 56 107 -23z m115 -35 c4
0 24 -12 47 -27 45 -30 132 -153 150 -213 12 -41 23 -50 31 -27 5 12 -12 127
-26 178 -4 13 5 4 18 -21 14 -25 25 -53 26 -63 0 -10 3 -16 8 -14 4 3 9 43 10
88 4 96 10 111 28 78 67 -119 70 -302 8 -559 -43 -178 -49 -181 -50 -28 -1
130 -18 273 -34 283 -5 3 -8 -70 -7 -162 1 -197 -13 -304 -54 -428 -32 -96
-106 -243 -145 -291 l-24 -29 15 50 c27 91 53 248 66 390 21 244 -22 561 -102
749 -16 39 -29 74 -29 79 0 5 13 -1 29 -12 16 -12 32 -21 35 -21z m476 -17
c114 -55 110 -49 131 -208 21 -161 -10 -344 -82 -488 -26 -52 -77 -127 -99
-147 -3 -3 -27 -34 -53 -69 -26 -36 -47 -60 -47 -55 0 6 11 47 24 91 46 153
60 263 59 468 0 167 -3 205 -27 310 -29 135 -30 145 -16 145 6 0 55 -21 110
-47z m-2341 -167 c-3 -3 -11 5 -18 17 -13 21 -12 21 5 5 10 -10 16 -20 13 -22z
m3863 -65 c-7 -4 -12 -14 -10 -22 2 -8 -3 -13 -11 -11 -12 3 -12 0 -2 -12 14
-17 26 -9 -224 -133 -82 -41 -166 -83 -185 -94 -88 -50 -163 -80 -173 -70 -8
8 -7 11 4 11 12 0 12 2 -1 10 -12 8 -10 10 10 11 14 0 19 3 13 6 -24 9 21 38
217 137 58 29 137 71 175 92 39 21 95 48 125 61 55 23 86 30 62 14z m-322 -51
c13 -9 12 -12 -4 -25 -20 -15 -46 -20 -46 -9 0 11 21 44 28 44 4 0 14 -5 22
-10z m-4211 -180 c38 -11 91 -56 91 -78 0 -11 -43 -66 -122 -155 -20 -23 -73
-17 -110 12 l-23 19 23 89 c26 97 33 110 65 116 38 7 41 7 76 -3z m-387 -51
c29 -6 57 -15 63 -20 5 -5 16 -9 25 -9 23 -1 50 -44 43 -69 -5 -20 -10 -22
-42 -16 -20 4 -76 13 -126 19 -49 7 -98 16 -107 20 -24 11 -23 -5 2 -54 21
-41 31 -45 100 -41 14 1 57 -3 95 -9 61 -9 74 -15 100 -46 17 -19 48 -47 70
-62 41 -28 51 -52 25 -64 -24 -10 -227 -9 -320 2 -48 6 -105 20 -130 33 -76
37 -114 137 -74 197 28 41 97 110 111 110 7 0 13 5 13 10 0 13 86 13 152 -1z
m544 -138 c3 -25 24 -78 45 -117 54 -99 52 -109 -15 -110 -48 0 -53 1 -48 19
4 16 1 19 -11 14 -10 -4 -14 -2 -11 6 2 7 -5 22 -16 34 -20 22 -27 39 -12 29
4 -2 8 3 9 12 1 9 9 37 18 62 11 29 15 61 12 90 -4 39 -3 42 9 26 7 -10 16
-39 20 -65z m4294 -20 c0 -10 -24 -21 -48 -21 -13 0 -12 3 4 15 21 16 44 19
44 6z m-3711 -223 c29 -58 43 -101 47 -143 7 -69 4 -74 -66 -97 l-45 -15 3 72
c4 77 -14 179 -47 262 -14 36 -16 51 -7 59 17 18 66 -42 115 -138z m-368 67
c36 -80 45 -186 17 -191 -14 -2 -18 5 -19 34 0 21 -8 79 -18 130 -10 50 -16
92 -14 92 2 0 17 -29 34 -65z m4052 41 c4 -10 -1 -13 -19 -11 -17 2 -22 -1
-14 -9 11 -14 12 -13 -114 -92 -100 -62 -93 -61 -209 -14 -84 36 -95 55 -43
78 27 11 34 10 77 -17 71 -44 80 -45 143 -11 31 16 81 44 112 60 65 35 60 34
67 16z m-3967 -24 c3 -10 10 -44 14 -77 l7 -60 2 71 c1 47 6 75 15 83 11 9 15
7 20 -13 3 -14 12 -31 20 -39 26 -26 46 -117 45 -206 -1 -59 -4 -78 -9 -61 -4
14 -8 19 -9 12 -2 -22 -18 -4 -24 27 -6 26 -9 29 -42 26 l-35 -3 0 46 c0 40
-15 108 -44 200 -6 17 -3 19 13 15 11 -3 23 -12 27 -21z m974 -31 c-6 -12 -7
-21 -3 -21 14 0 6 -69 -11 -95 -17 -26 -40 -32 -51 -14 -4 5 -18 14 -31 19
-33 13 -30 22 19 65 23 20 51 45 62 55 24 22 30 19 15 -9z m-1332 -6 c-3 -3
-9 2 -12 12 -6 14 -5 15 5 6 7 -7 10 -15 7 -18z m3192 -69 c-11 -5 -20 -16
-20 -24 0 -10 -8 -13 -25 -10 -14 3 -25 1 -25 -3 0 -5 5 -9 10 -9 6 0 10 -5
10 -11 0 -5 -4 -7 -10 -4 -6 3 -10 -4 -10 -18 0 -21 -4 -23 -41 -23 -30 1 -46
7 -60 25 -27 33 -24 42 24 89 23 23 51 51 61 62 l20 20 43 -42 c41 -40 42 -43
23 -52z m-3170 39 c0 -8 -2 -15 -4 -15 -2 0 -6 7 -10 15 -3 8 -1 15 4 15 6 0
10 -7 10 -15z m4564 -37 c-3 -4 -1 -8 4 -8 11 0 37 -85 35 -113 -1 -10 3 -15
9 -11 8 5 9 1 5 -10 -4 -9 -3 -15 2 -12 5 3 14 -8 21 -25 15 -36 8 -43 -49
-54 -61 -11 -180 -77 -260 -144 -74 -61 -255 -162 -290 -160 -13 0 -13 2 -1 6
8 3 23 14 34 25 11 10 26 18 33 18 7 0 13 3 13 8 0 8 62 38 69 33 2 -1 7 1 10
6 3 5 26 20 51 34 86 46 154 142 167 236 l6 46 -32 -24 c-17 -13 -45 -44 -61
-69 -46 -69 -68 -92 -81 -84 -7 4 -9 3 -6 -3 11 -17 -152 -86 -203 -86 -50 0
-144 39 -133 56 3 6 1 7 -5 3 -6 -3 -27 7 -46 24 -31 28 -34 34 -24 56 6 13
19 24 30 24 10 0 18 5 18 10 0 6 9 10 20 10 11 0 20 4 20 9 0 10 38 24 58 22
25 -3 124 19 159 35 19 10 41 17 49 17 8 0 14 3 14 6 0 3 12 11 28 17 95 39
144 56 166 58 13 0 22 4 19 9 -2 4 7 7 21 7 14 0 28 5 31 10 3 6 20 10 36 10
17 0 28 4 24 10 -3 6 4 9 19 8 13 -1 22 -6 20 -10z m-5061 -26 c125 -2 219 0
237 6 37 13 49 0 56 -65 7 -56 3 -60 -107 -88 -128 -34 -351 -42 -333 -13 4 6
-1 8 -13 4 -27 -8 -81 46 -89 90 -9 50 2 88 24 78 9 -4 111 -10 225 -12z
m3847 -24 c0 -26 -53 -99 -93 -126 -75 -52 -108 -64 -167 -64 -82 0 -127 27
-164 99 -35 69 -17 69 53 -1 83 -82 123 -93 209 -56 58 25 142 108 142 140 0
11 5 20 10 20 6 0 10 -5 10 -12z m-1899 -60 c-11 -18 -21 -26 -21 -18 0 11 -3
11 -12 2 -7 -7 -17 -12 -22 -12 -6 0 1 8 14 17 14 9 31 25 39 36 22 31 25 10
2 -25z m-31 -48 c0 -5 -2 -10 -4 -10 -3 0 -8 5 -11 10 -3 6 -1 10 4 10 6 0 11
-4 11 -10z m-1666 -92 c16 -62 -4 -121 -35 -102 -8 5 -9 3 -4 -6 6 -10 4 -12
-9 -7 -9 4 -15 3 -12 -2 8 -12 -51 -32 -71 -24 -10 4 -14 2 -10 -4 8 -13 -76
-34 -126 -32 -30 2 -30 2 -4 6 57 9 19 30 -45 25 -11 -1 -15 3 -12 13 5 11 2
13 -10 9 -9 -3 -16 -1 -16 4 0 6 -10 12 -22 14 -17 2 -22 9 -20 23 2 11 9 23
15 27 7 5 -1 8 -18 9 -16 1 19 5 78 10 59 4 145 15 190 25 45 9 90 17 99 18 9
0 14 4 12 8 -3 4 -1 8 4 8 5 0 12 -10 16 -22z m-410 -83 c-4 -8 -8 -15 -10
-15 -2 0 -4 7 -4 15 0 8 4 15 10 15 5 0 7 -7 4 -15z m5398 -2 c-8 -3 -11 -16
-6 -37 l6 -33 -64 -12 c-103 -20 -249 -95 -368 -189 -57 -46 -106 -78 -108
-72 -3 8 -8 8 -17 0 -10 -8 -15 -8 -21 1 -5 8 -3 9 6 4 10 -6 12 -4 7 8 -11
29 167 194 278 257 85 49 181 80 245 79 30 0 49 -3 42 -6z m-3951 -215 c5 -20
26 -58 45 -84 33 -43 35 -51 30 -93 -17 -122 -15 -118 -56 -136 -39 -17 -49
-35 -79 -135 -11 -38 -51 -260 -51 -284 0 -8 14 -31 31 -50 l30 -35 -50 -65
c-73 -96 -118 -177 -169 -306 -43 -110 -45 -120 -45 -215 0 -107 20 -185 64
-246 l21 -30 -39 -56 c-21 -32 -57 -76 -80 -98 -24 -23 -43 -46 -43 -51 0 -14
47 -56 93 -84 31 -18 37 -27 32 -44 -4 -11 -9 -44 -12 -72 -5 -46 -3 -53 16
-59 27 -8 27 -24 -1 -61 -49 -65 -132 -154 -144 -154 -29 0 -106 -42 -147 -80
-59 -54 -97 -139 -104 -235 -6 -72 -6 -73 -36 -79 -16 -3 -58 -6 -93 -6 l-64
0 44 87 c24 49 58 130 76 182 32 92 32 95 21 180 -20 156 -63 686 -106 1301
-14 195 -52 695 -71 933 -4 47 -3 77 3 77 5 0 50 -9 99 -19 103 -22 239 -27
374 -13 160 17 244 45 340 116 l45 33 8 -41 c5 -23 13 -58 18 -78z m1913 86
c22 -9 20 -31 -4 -44 -24 -13 -40 -5 -40 19 0 29 14 37 44 25z m1093 -64 c10
0 13 -25 13 -97 0 -109 14 -173 53 -248 41 -78 77 -165 77 -187 0 -11 -9 -31
-20 -45 -13 -16 -20 -41 -20 -67 0 -37 -4 -43 -40 -64 -51 -29 -91 -89 -97
-146 l-5 -44 -34 44 c-38 49 -40 57 -20 73 8 7 21 26 29 44 15 30 14 41 -12
157 -50 219 -51 222 -93 239 l-38 16 0 64 c0 58 3 68 34 105 45 55 62 90 76
159 l11 57 37 -30 c20 -16 42 -30 49 -30z m936 44 c-8 -4 -9 -13 -3 -28 8 -21
4 -23 -63 -39 -95 -22 -231 -91 -339 -172 -49 -35 -87 -61 -87 -57 4 21 -2 32
-13 26 -34 -18 113 121 157 150 99 64 260 125 330 125 17 -1 25 -3 18 -5z
m-3103 -94 c0 -5 -2 -10 -4 -10 -3 0 -8 5 -11 10 -3 6 -1 10 4 10 6 0 11 -4
11 -10z m2990 -98 c0 -45 -30 -262 -46 -327 -18 -78 -18 -82 7 -90 44 -14 11
-13 -51 2 -36 8 -81 17 -100 19 -73 6 -77 10 -72 68 3 41 -2 67 -22 117 l-26
64 23 18 c96 77 230 154 275 156 7 1 12 -11 12 -27z m-2238 -278 c101 -53 193
-102 205 -109 13 -7 20 -15 16 -18 -3 -4 3 -7 14 -7 12 0 23 -7 27 -15 4 -10
-9 -21 -42 -36 -26 -11 -52 -27 -59 -36 -7 -9 -13 -10 -17 -4 -4 6 7 22 24 37
31 29 39 54 17 54 -8 0 -60 22 -116 50 -56 27 -136 64 -177 81 l-76 32 -57
-26 c-193 -88 -270 -127 -300 -152 -32 -27 -101 -44 -101 -24 0 10 52 50 100
77 19 11 67 38 106 61 39 22 76 41 82 41 6 0 12 4 14 8 4 11 130 82 145 82 7
0 95 -43 195 -96z m-55 -74 c7 0 13 -7 13 -15 0 -19 1 -19 -62 6 -37 14 -65
19 -97 15 -64 -8 -101 -17 -97 -25 2 -3 -10 -7 -27 -7 -24 -1 -12 8 58 41 l90
42 54 -28 c30 -16 61 -29 68 -29z m1953 50 c8 12 10 11 10 -7 0 -13 -5 -23
-12 -23 -6 0 -9 -3 -5 -6 7 -8 -20 -64 -31 -64 -4 0 -13 4 -20 8 -10 7 -8 19
10 55 15 29 25 42 30 34 6 -9 11 -8 18 3z m-3030 -86 c0 -4 -9 -22 -21 -40
-17 -28 -24 -32 -38 -24 -10 5 -21 6 -25 3 -15 -16 -4 17 15 41 18 23 69 38
69 20z m750 -15 c0 -5 -4 -8 -9 -4 -5 3 -12 1 -16 -5 -3 -5 -14 -10 -23 -10
-12 1 -10 5 8 15 30 17 40 18 40 4z m310 -41 c36 -17 80 -41 98 -53 l33 -23
-38 -29 c-58 -46 -193 -133 -206 -133 -6 0 -47 22 -91 48 -45 27 -92 52 -106
55 -81 21 -62 52 73 119 128 63 139 64 237 16z m2095 17 c6 0 33 -11 60 -24
28 -13 60 -29 72 -34 26 -12 23 -20 -7 -22 -11 -1 -20 5 -20 13 0 9 -6 12 -15
8 -9 -3 -18 1 -21 9 -3 7 -12 11 -20 8 -8 -3 -14 0 -14 7 0 7 -8 10 -19 7 -12
-3 -22 1 -25 9 -3 8 -10 14 -16 14 -6 0 -8 -5 -4 -12 4 -7 3 -8 -4 -4 -6 4 -9
13 -6 21 4 8 11 12 18 8 6 -4 16 -8 21 -8z m-69 -63 c43 -21 105 -49 136 -61
41 -17 62 -31 72 -52 14 -29 14 -29 -12 -23 -63 14 -241 78 -237 84 7 11 -20
31 -30 22 -5 -4 -5 -1 -1 6 4 7 1 15 -8 18 -16 6 -23 44 -8 44 5 0 44 -17 88
-38z m-1706 3 c-7 -8 -20 -15 -28 -15 -13 0 -12 3 4 15 25 19 40 19 24 0z
m-962 -118 c3 -76 0 -102 -19 -152 -24 -65 -38 -59 -19 8 6 23 12 90 13 149 2
132 20 129 25 -5z m2379 32 c11 -11 121 -59 136 -59 4 0 26 -9 50 -19 23 -11
62 -26 87 -34 25 -9 59 -21 75 -28 33 -14 40 -16 55 -18 6 0 10 -9 10 -18 0
-13 3 -14 8 -6 4 7 17 10 30 6 18 -4 20 -8 11 -20 -10 -11 -9 -13 2 -11 8 2
17 8 21 13 5 6 8 6 8 -2 0 -6 9 -9 23 -6 16 3 18 2 8 -5 -11 -8 -10 -12 6 -20
12 -7 25 -7 34 -1 7 5 21 8 29 8 8 0 3 -5 -12 -11 -16 -5 -28 -14 -28 -19 0
-6 -6 -7 -12 -3 -10 5 -10 4 -2 -5 9 -10 17 -10 34 -1 12 6 24 9 27 7 2 -3 -5
-8 -16 -12 -12 -3 -21 -11 -21 -17 0 -7 -5 -6 -14 1 -8 7 -17 8 -20 3 -3 -5
-19 -8 -36 -7 -16 1 -30 -2 -30 -7 0 -12 -28 -10 -36 4 -5 7 -3 8 6 3 9 -5 11
-4 6 4 -4 6 -12 9 -17 5 -5 -3 -7 -10 -4 -15 4 -5 -1 -9 -9 -9 -9 0 -16 -6
-17 -12 0 -10 -2 -10 -6 0 -8 20 -31 14 -35 -10 -2 -19 -9 -23 -40 -23 -42 0
-59 -12 -38 -25 13 -9 13 -10 0 -11 -10 0 -8 -3 5 -9 17 -7 17 -9 3 -9 -10 -1
-18 -7 -18 -15 0 -20 -38 -45 -61 -41 -21 4 -26 -10 -6 -18 6 -3 2 -6 -11 -6
-12 -1 -21 -4 -20 -8 2 -5 -8 -19 -21 -32 -16 -16 -22 -18 -18 -8 3 9 2 19 -3
22 -5 3 -10 -3 -13 -12 -2 -10 -7 5 -11 32 -5 28 -17 85 -27 128 -11 43 -17
82 -14 87 3 6 -1 7 -9 4 -11 -4 -16 0 -17 12 0 11 -3 14 -6 7 -2 -7 -14 -13
-26 -12 -12 0 -16 3 -9 6 20 8 13 18 -15 20 -19 1 -22 -1 -12 -8 21 -13 -17
-12 -43 2 -23 13 -37 4 -20 -13 17 -17 15 -33 -3 -18 -12 10 -15 10 -15 -3 0
-11 -6 -13 -22 -9 -14 3 -19 2 -14 -6 10 -16 -7 -15 -23 1 -11 10 -11 8 -2
-11 7 -12 9 -27 5 -33 -4 -6 0 -15 7 -20 11 -7 11 -9 -2 -9 -10 0 -19 10 -21
25 -3 15 -1 22 5 18 6 -3 7 -1 4 5 -4 5 -16 8 -27 5 -26 -7 -26 10 1 117 17
70 26 89 57 117 31 28 55 40 65 31 1 -2 16 9 32 25 34 30 37 31 52 16z m-773
-15 c18 -7 10 -34 -10 -34 -8 0 -14 9 -14 20 0 22 1 23 24 14z m-222 -29 c-5
-30 -26 -28 -30 3 -3 16 2 22 16 22 15 0 18 -5 14 -25z m-577 -195 c-13 -22
-146 -101 -158 -94 -7 4 -9 4 -5 -1 8 -8 -33 -45 -51 -45 -6 0 -11 -6 -11 -12
0 -9 -3 -9 -9 1 -7 11 11 34 72 90 45 42 90 85 102 97 l20 21 24 -23 c13 -12
20 -27 16 -34z m-388 -77 c11 -10 11 -13 2 -13 -8 0 -5 -7 7 -16 20 -17 -56
23 -119 63 -45 28 -53 44 -37 73 12 22 14 21 73 -36 33 -33 67 -65 74 -71z
m2690 71 c-3 -3 -12 -4 -19 -1 -8 3 -5 6 6 6 11 1 17 -2 13 -5z m-2857 -94 c0
-5 6 -8 13 -6 6 1 9 1 4 -1 -4 -3 -4 -10 0 -16 3 -7 -2 -4 -13 5 -16 14 -23
15 -34 5 -10 -10 -12 -9 -7 4 4 11 -3 20 -19 27 -16 8 -22 17 -18 29 5 15 4
15 -5 3 -15 -21 -25 -5 -11 20 11 21 12 20 51 -19 21 -23 39 -45 39 -51z
m2857 8 c-2 -13 -4 -3 -4 22 0 25 2 35 4 23 2 -13 2 -33 0 -45z m-810 10 c-3
-7 -5 -2 -5 12 0 14 2 19 5 13 2 -7 2 -19 0 -25z m-2132 -28 c3 -6 -1 -7 -9
-4 -18 7 -21 14 -7 14 6 0 13 -4 16 -10z m2053 -33 c6 -5 12 -15 12 -21 0 -6
-5 -3 -11 7 -5 9 -15 17 -21 17 -7 0 -7 -4 1 -13 8 -10 7 -17 -1 -25 -7 -7 -8
-12 -3 -12 4 0 -2 -9 -14 -19 -20 -18 -21 -20 -4 -24 10 -3 5 -5 -12 -4 -16 1
-30 7 -30 14 0 6 -4 15 -9 20 -5 5 -6 3 -2 -4 4 -7 2 -13 -3 -13 -17 0 -13 27
9 70 19 38 21 39 48 28 15 -7 33 -16 40 -21z m-1968 -9 c0 -26 -9 -19 -15 11
-2 12 0 19 6 16 5 -4 9 -16 9 -27z m510 17 c-7 -8 -17 -15 -23 -15 -6 0 -2 7
9 15 25 19 30 19 14 0z m1495 -13 c-3 -3 -11 0 -18 7 -9 10 -8 11 6 5 10 -3
15 -9 12 -12z m19 -16 c-3 -9 -10 -13 -15 -10 -5 3 -3 11 4 19 15 16 19 13 11
-9z m-1546 -4 c-16 -2 -28 -8 -28 -13 0 -5 -7 -9 -17 -9 -13 0 -12 3 6 19 14
12 29 17 44 13 20 -6 20 -7 -5 -10z m1532 -26 c0 -2 -8 -10 -17 -17 -16 -13
-17 -12 -4 4 13 16 21 21 21 13z m-1131 -386 c-1 -195 -4 -368 -8 -383 -6 -27
-8 -25 -56 47 -64 96 -79 104 -70 35 8 -56 11 -51 -75 -120 -25 -20 -63 -52
-85 -72 -22 -19 -82 -59 -133 -88 -52 -29 -104 -66 -117 -81 -13 -15 -27 -28
-30 -28 -3 0 -21 11 -38 24 -18 13 -52 34 -77 47 -84 44 -294 201 -329 245
-18 23 -21 38 -19 108 l2 81 3 -77 c3 -48 8 -78 15 -78 6 0 54 -31 107 -69
203 -145 298 -203 320 -196 27 8 130 70 243 147 48 32 90 58 93 58 2 0 13 7
22 15 10 8 27 21 38 29 18 13 20 29 24 153 4 97 7 125 11 93 7 -42 7 -41 8 22
l2 68 29 -6 c23 -5 35 -1 56 20 23 23 26 33 21 64 -4 20 -7 47 -8 58 -1 14 -7
20 -16 17 -11 -5 -11 -7 0 -15 9 -7 8 -8 -5 -4 -10 3 -25 6 -33 6 -9 0 -12 5
-8 13 4 7 3 9 -2 4 -5 -5 -9 -12 -9 -15 -1 -4 -11 -23 -23 -42 l-22 -35 0 116
c0 123 5 138 49 142 11 0 17 5 15 9 -3 4 2 8 10 8 9 0 16 5 16 10 0 6 8 10 18
10 10 0 24 9 32 20 10 14 16 16 22 7 4 -6 7 -172 7 -367z m-1073 324 c39 -7
44 -29 43 -189 l0 -110 -22 43 c-11 23 -28 42 -37 42 -16 0 -60 -27 -71 -43
-4 -6 -8 -78 -8 -160 -1 -83 -3 -153 -6 -155 -3 -3 -6 64 -7 149 -1 161 -1
186 1 360 l1 107 37 -19 c20 -10 51 -22 69 -25z m2688 34 c-2 -3 -13 -6 -24
-5 -24 2 -18 13 9 13 11 0 18 -4 15 -8z m-2154 -22 c0 -3 -4 -8 -10 -11 -5 -3
-10 -1 -10 4 0 6 5 11 10 11 6 0 10 -2 10 -4z m1852 -69 c3 4 3 2 2 -4 -2 -7
1 -13 6 -13 6 0 10 -4 10 -10 0 -5 -6 -7 -14 -4 -8 3 -17 0 -21 -6 -6 -9 -10
-9 -16 1 -6 10 -9 6 -9 -13 0 -15 -4 -30 -10 -33 -5 -3 -10 -11 -10 -16 0 -5
11 -2 24 8 16 12 20 21 12 26 -7 6 -6 7 3 5 8 -2 15 -12 17 -21 1 -9 -2 -14
-7 -11 -13 7 -41 -15 -33 -27 3 -5 9 -7 13 -5 4 3 8 -2 8 -10 0 -11 -6 -9 -22
6 -28 26 -29 65 -3 108 15 25 23 30 33 22 7 -6 15 -7 17 -3z m58 -2 c0 -2 -6
-5 -13 -8 -8 -3 -14 1 -14 8 0 7 6 11 14 8 7 -3 13 -6 13 -8z m-2300 -35 c0
-5 7 -10 15 -10 17 0 81 -35 101 -54 7 -8 10 -17 6 -21 -4 -5 -2 -5 5 -2 6 4
19 4 27 1 15 -6 15 -9 2 -29 -14 -21 -13 -24 6 -41 12 -11 18 -14 15 -7 -10
16 6 24 23 12 13 -7 13 -9 0 -9 -13 0 -13 -1 0 -10 19 -12 60 -13 60 -1 0 5
-12 8 -27 5 -19 -3 -24 -2 -14 5 11 7 9 10 -8 16 -11 3 -21 12 -21 18 0 7 -7
3 -15 -7 -13 -17 -15 -17 -15 -4 0 27 20 32 48 12 15 -11 40 -26 55 -34 l29
-14 -59 -23 c-80 -30 -97 -30 -90 3 3 19 1 24 -10 20 -8 -3 -23 -6 -34 -6 -16
0 -18 -5 -13 -25 3 -14 2 -26 -2 -26 -61 -8 -74 -7 -76 4 -1 6 -4 -15 -8 -48
-5 -47 -7 -30 -8 75 -1 74 -5 152 -8 173 -5 24 -3 37 5 37 6 0 11 -4 11 -10z
m678 -262 l-3 -272 -160 -108 c-94 -64 -168 -107 -180 -105 -20 2 -20 8 -16
271 3 221 1 270 -10 277 -10 6 -8 9 10 9 20 0 97 35 111 51 3 3 32 21 65 39
33 19 62 37 63 42 2 4 9 8 16 8 7 0 21 9 31 20 10 11 24 20 32 20 7 0 13 5 13
10 0 6 7 10 15 10 13 0 15 -34 13 -272z m-1601 178 c106 -85 266 -236 226
-213 -6 4 -14 3 -18 -3 -4 -7 -12 -7 -25 0 -16 8 -18 8 -14 -5 4 -8 2 -15 -2
-15 -18 1 -199 156 -222 190 -22 32 -22 35 -6 47 23 17 40 16 61 -1z m2554 4
c17 -10 18 -13 4 -34 -8 -12 -12 -26 -8 -30 5 -4 3 -6 -3 -4 -15 4 -120 -66
-227 -152 -48 -38 -91 -70 -94 -70 -4 0 -4 3 0 6 3 3 2 16 -3 29 -7 18 -2 29
24 56 44 45 101 97 156 139 24 19 53 43 64 53 22 19 58 22 87 7z m-1733 -217
l-1 -78 -7 70 c-3 39 -5 73 -3 78 10 19 13 1 11 -70z m-807 -58 c26 -25 45
-45 41 -46 -4 0 2 -4 13 -9 19 -9 19 -9 -2 -16 -13 -3 -23 -10 -23 -16 0 -5
-12 3 -27 17 -15 14 -38 25 -50 25 -13 0 -23 6 -23 14 0 23 12 76 18 76 3 0
27 -20 53 -45z m2524 -24 c-3 -6 -14 -11 -23 -11 -13 0 -13 2 4 14 21 15 30
14 19 -3z m-2438 -87 c54 -36 54 -39 1 -13 -27 13 -48 27 -48 31 0 12 6 10 47
-18z m-1233 -319 c66 -86 125 -201 132 -258 4 -32 -5 -80 -40 -201 -26 -88
-48 -161 -49 -163 -2 -1 -11 91 -21 205 -22 258 -28 284 -82 404 -24 54 -44
108 -44 120 1 22 2 22 26 -7 14 -16 49 -61 78 -100z m2946 -102 c0 -7 18 -53
40 -104 l41 -91 -22 -57 c-14 -38 -23 -89 -26 -158 l-6 -103 -522 0 -522 0 -6
98 c-3 61 -13 120 -27 160 l-22 62 31 61 c17 34 33 77 37 95 3 19 10 37 15 39
4 3 50 -25 101 -63 132 -98 322 -222 339 -222 18 0 163 93 317 204 62 45 134
96 160 114 l47 34 12 -29 c7 -15 12 -33 13 -40z"/>
<path d="M2565 6600 c3 -5 10 -10 16 -10 5 0 9 5 9 10 0 6 -7 10 -16 10 -8 0
-12 -4 -9 -10z"/>
<path d="M2460 6516 c0 -2 7 -7 16 -10 8 -3 12 -2 9 4 -6 10 -25 14 -25 6z"/>
<path d="M2429 6483 c-11 -15 -11 -16 1 -5 20 17 35 15 20 -3 -14 -16 -3 -20
19 -6 15 10 7 31 -13 31 -8 0 -20 -8 -27 -17z"/>
<path d="M2467 6454 c-3 -3 -3 -13 0 -21 5 -12 7 -12 14 -1 15 23 4 40 -14 22z"/>
<path d="M2128 6158 c5 -5 16 -8 23 -6 8 3 3 7 -10 11 -17 4 -21 3 -13 -5z"/>
<path d="M2119 6041 c14 -25 20 -27 17 -4 -2 9 -8 19 -15 21 -10 3 -10 0 -2
-17z"/>
<path d="M2085 6029 c-4 -6 -4 -13 -1 -16 3 -4 6 -1 6 6 0 7 5 9 12 5 7 -4 8
-3 4 4 -9 15 -13 15 -21 1z"/>
<path d="M2060 5990 c0 -6 5 -8 10 -5 6 3 10 2 10 -4 0 -5 -5 -12 -10 -14 -6
-3 -5 -4 2 -3 17 3 17 28 1 34 -7 2 -13 -1 -13 -8z"/>
<path d="M2160 5929 c0 -5 5 -7 10 -4 6 3 10 8 10 11 0 2 -4 4 -10 4 -5 0 -10
-5 -10 -11z"/>
<path d="M2036 5875 c4 -8 8 -15 10 -15 2 0 4 7 4 15 0 8 -4 15 -10 15 -5 0
-7 -7 -4 -15z"/>
<path d="M2046 5811 c-3 -5 0 -11 8 -14 8 -3 17 1 20 9 6 15 -19 20 -28 5z"/>
<path d="M2035 5770 c-3 -5 -1 -10 4 -10 6 0 11 5 11 10 0 6 -2 10 -4 10 -3 0
-8 -4 -11 -10z"/>
<path d="M4755 6180 c-3 -5 -2 -10 4 -10 5 0 13 5 16 10 3 6 2 10 -4 10 -5 0
-13 -4 -16 -10z"/>
<path d="M1606 6057 c3 -10 9 -15 12 -12 3 3 0 11 -7 18 -10 9 -11 8 -5 -6z"/>
<path d="M1757 6036 c10 -13 22 -22 26 -19 4 3 -2 13 -14 24 -30 26 -34 24
-12 -5z"/>
<path d="M4411 5384 c0 -11 3 -14 6 -6 3 7 2 16 -1 19 -3 4 -6 -2 -5 -13z"/>
<path d="M6860 2210 c0 -6 7 -10 15 -10 8 0 15 2 15 4 0 2 -7 6 -15 10 -8 3
-15 1 -15 -4z"/>
<path d="M6535 2020 c-3 -5 -1 -10 4 -10 6 0 11 5 11 10 0 6 -2 10 -4 10 -3 0
-8 -4 -11 -10z"/>
<path d="M4230 2172 c0 -12 19 -26 26 -19 2 2 -2 10 -11 17 -9 8 -15 8 -15 2z"/>
<path d="M6450 1911 c0 -5 5 -13 10 -16 6 -3 10 -2 10 4 0 5 -4 13 -10 16 -5
3 -10 2 -10 -4z"/>
<path d="M3506 1588 c3 -5 10 -6 15 -3 13 9 11 12 -6 12 -8 0 -12 -4 -9 -9z"/>
<path d="M539 7483 l-24 -28 28 24 c15 14 27 26 27 28 0 8 -8 1 -31 -24z"/>
<path d="M2140 7396 c0 -2 7 -7 16 -10 8 -3 12 -2 9 4 -6 10 -25 14 -25 6z"/>
<path d="M998 5303 c6 -2 18 -2 25 0 6 3 1 5 -13 5 -14 0 -19 -2 -12 -5z"/>
<path d="M1051 5234 c0 -11 3 -14 6 -6 3 7 2 16 -1 19 -3 4 -6 -2 -5 -13z"/>
<path d="M1181 4504 c0 -11 3 -14 6 -6 3 7 2 16 -1 19 -3 4 -6 -2 -5 -13z"/>
<path d="M1651 4394 c0 -11 3 -14 6 -6 3 7 2 16 -1 19 -3 4 -6 -2 -5 -13z"/>
<path d="M1102 3430 c0 -14 2 -19 5 -12 2 6 2 18 0 25 -3 6 -5 1 -5 -13z"/>
<path d="M1351 3144 c0 -11 3 -14 6 -6 3 7 2 16 -1 19 -3 4 -6 -2 -5 -13z"/>
<path d="M1361 3014 c0 -11 3 -14 6 -6 3 7 2 16 -1 19 -3 4 -6 -2 -5 -13z"/>
<path d="M1371 2864 c0 -11 3 -14 6 -6 3 7 2 16 -1 19 -3 4 -6 -2 -5 -13z"/>
<path d="M1392 2580 c0 -14 2 -19 5 -12 2 6 2 18 0 25 -3 6 -5 1 -5 -13z"/>
<path d="M1411 2254 c0 -11 3 -14 6 -6 3 7 2 16 -1 19 -3 4 -6 -2 -5 -13z"/>
<path d="M1421 2084 c0 -11 3 -14 6 -6 3 7 2 16 -1 19 -3 4 -6 -2 -5 -13z"/>
<path d="M1451 1664 c0 -11 3 -14 6 -6 3 7 2 16 -1 19 -3 4 -6 -2 -5 -13z"/>
<path d="M1462 1500 c0 -14 2 -19 5 -12 2 6 2 18 0 25 -3 6 -5 1 -5 -13z"/>
<path d="M1472 1280 c0 -19 2 -27 5 -17 2 9 2 25 0 35 -3 9 -5 1 -5 -18z"/>
<path d="M1471 1024 c0 -11 3 -14 6 -6 3 7 2 16 -1 19 -3 4 -6 -2 -5 -13z"/>
</g>
</svg>
